<?xml version="1.0" encoding="UTF-8"?>
<svg xmlns="http://www.w3.org/2000/svg" id="Calque_1" data-name="Calque 1" viewBox="0 0 352.23 90.15">
  <defs>
    <style>.cls-1{fill:none;stroke:#fff;opacity:0.85;}.cls-1,.cls-10{stroke-miterlimit:10;}.cls-1,.cls-2,.cls-3,.cls-4,.cls-5,.cls-6,.cls-7,.cls-8{isolation:isolate;}.cls-3,.cls-4,.cls-5,.cls-6,.cls-7,.cls-8{font-size:18.68px;fill:#756134;font-family:PlayfairDisplay-Regular, Playfair Display;}.cls-3{letter-spacing:-0.07em;}.cls-4{letter-spacing:-0.05em;}.cls-5{letter-spacing:-0.03em;}.cls-7{letter-spacing:-0.02em;}.cls-8{letter-spacing:-0.01em;}.cls-9{fill:#333027;}.cls-10{fill:#d3b059;stroke:#d3b059;}</style>
  </defs>
  <g id="Calque_2" data-name="Calque 2">
    <g id="Calque_3" data-name="Calque 3">
      <rect class="cls-1" x="0.5" y="0.5" width="351.23" height="89.15"></rect>
      <g class="cls-2">
        <text class="cls-3" transform="translate(102.16 76.96)">P</text>
        <text class="cls-4" transform="translate(112.32 76.96)">A</text>
        <text class="cls-5" transform="translate(123.16 76.96)">Y</text>
        <text class="cls-6" transform="translate(134.2 76.96)">S</text>
        <text class="cls-7" transform="translate(144.2 76.96)">A</text>
        <text class="cls-6" transform="translate(155.6 76.96)">NNE · HERB</text>
        <text class="cls-8" transform="translate(256.87 76.96)">O</text>
        <text class="cls-6" transform="translate(270.56 76.96)">RISTE</text>
      </g>
      <path class="cls-9" d="M115.89,19.21a33.24,33.24,0,0,0,1-7.81l-1.87.11c-2,8-3.46,16.28-4.76,24.45a57.74,57.74,0,0,0-9.84-.11c1.66-7.94,3.62-16.63,4.41-24.85l.06-.05c0-.06-.07-.06-.12-.06-1.74-2-2.25-1.81-3.28.28C98,16,93.41,20.94,87.4,22.21l-.9,2.29c5.9,0,10.71-5.07,14.54-9-1.3,7.07-2.49,13.92-4.13,20.82-27.07,4.43-7.07,45.39,2.66,2.46,3.34-.34,6.91-.45,10.24-.62a57.76,57.76,0,0,0-.21,19.41h.17c.39-3.79,2-14.37,2.83-19.58,1.53-.17,3-.51,4.52-.68l.06-.23c-2.38-.39-1.41-.39-4.3-.79C113.85,30.5,114.81,24.87,115.89,19.21ZM90.82,53.39c-.51.73-1.81,2.66-3,2.66-4.12-7.87-.72-15.77,8.38-16.86C94.84,44.39,93.5,49.37,90.82,53.39Z"></path>
      <path class="cls-9" d="M182.5,43.32c-2.16.17-3.61-2.24-3.22-5.74,2.66-.75,9-8,4.42-9.45-2.54,0-7.14,4.59-7.19,8.93a10.26,10.26,0,0,1-10.19,2.55c3.37-14.45-11.73-5.8-2.82.08-2.13,7.2-4.07-1.08-3.33-5.32.26.17,15.19-28.89,2.77-23.2-3.65,4.55-5.57,18.78-5.6,25.75-2.86,3.19-7.31,5.76-8.32.57-1.08-4.36-3.74-11.43-9.06-11.43-1,0-1.41,1.13-1.41,1.35,2,2.7,3.25,6-.11,9.34h0c-2.4,2.5-15.1,12.9-14.32.83,2.66-.75,9.11-8,4.47-9.45-2.55,0-7.19,4.64-7.19,9,0,13.69,13.24,5.68,18.15.74h0c2-2,3.68-4.64,3.68-7.08,2.86,3.6,1.22,11.73,7.07,12.06,2.62,0,5.25-2.06,7.14-3.83.05,7.82,5.48,7.88,8.54,1.68A12.75,12.75,0,0,0,176.65,39c1.27,11.39,13.8,3.21,18.06-1.08l-1.08-1.08C192.34,38,186.34,43.32,182.5,43.32Zm.23-13c1.85.57-1.08,4.3-3.12,5.2.67-2.5,2-5.16,3.11-5.16ZM165.35,12.5c2.62.52-2.66,13.08-4.81,18.23C161.33,24.36,163.2,16.5,165.35,12.5ZM127.6,30.36c1.87.56-1.07,4.3-3.11,5.2C125.17,33,126.5,30.36,127.6,30.36Zm35.2,4.52a2.89,2.89,0,0,1,1,2.61A10.21,10.21,0,0,1,162.8,34.88Z"></path>
      <path class="cls-9" d="M242.7,41.11c-2.86-1.55,2.06-8.76-2-9.11-1.13,0-1.42,1.24-1.76,1.81.21-.53-5.75,13.49-5.88,7.13,0-2.72,1.41-6.9,1.41-9.17a1.62,1.62,0,0,0-1.75-1.53c-2.07.33-1.1,4.88-2,6.61-.67.47-7.62,6.86-8.26,3.69,0-1.69-.06-3.56-.85-4.64l1.24-.56c-2.95-8.28-18.92-2.64-19.4,5.22,1.17,6.92,12.22-2.84,16-2.88-.36,9.32,7,5.24,11.11,1.5-.35,10.55,5.32,3.56,8.75-1.73-1.11,10.23,10.21,3.74,13.47.36l-1.08-1.08C249.89,38.5,245.19,41.11,242.7,41.11Zm-22.86-6.06c-5.26,0-8.26,6.06-14.09,6.23,1.11-5.63,9.25-8.85,14.2-6.19Z"></path>
      <path class="cls-9" d="M285,19.72c-.85-.08-3.76-1.54-3.46-.06C280.27,29.28,279.2,38.9,274,46c-2.43,3.74-3.35-1-3.85-3.12-2.21-5.64.2-23.92-6.24-24.41A4.26,4.26,0,0,0,260.22,21l2.15,1.08c1-.08,1.65.51,2.09,1.87,2.44,5-.69,23.42,7.93,25.74C279.18,49.11,281.91,25.74,285,19.72Z"></path>
      <path class="cls-9" d="M337.43,19.27c-3.6.16-7.19.66-10.76,1.17.56-2.38,1.86-5.13-1.52-5.65-1,0-1.36,4.41-1.53,6.05l-7.53,1c-1.24.17-1.07,0-1.64,1.93,7.42,2.25,8.75,6.07,7.81,13.18-10.77,11-4.9-3.37-10.86-3.87-3.95,1-4.95,5.8-8.21,7.92,0-3.06.48-6.22-.45-9.2a9,9,0,0,0-2.1,1c.06,1.4.11,2.85.16,4.25-2.88,2.86-14.79,12.32-14.08.6,2.67-.75,9.1-8,4.47-9.45-13,4.56-8.08,26.83,9.69,10.89.23,9.74,6.71-1.67,10-3.08,2.65,8.52,6,7.89,11.45,3,.74,9.51,6.42,5.09,12.9-1.18l-1.08-1.08c-15.49,15.88-8.71-5.59-8-14,4.95-.61,9.93-.72,14.43-2.95v-.16A21.58,21.58,0,0,0,337.43,19.27Zm-21.62,2.94c-.06,0-.11-.06-.17-.06a.25.25,0,0,0,.17,0Zm-25.63,8.15c1.85.57-1.08,4.3-3.12,5.2C287.74,33,289.1,30.36,290.18,30.36Zm28.85-7c1.48-.17,2.89-.29,4.3-.46-.16,1.64-.33,3.17-.5,4.64A11.36,11.36,0,0,0,319,23.4Z"></path>
      <path class="cls-10" d="M36.87,31.26Z"></path>
      <path class="cls-10" d="M41.92,34.1c8.24.44,7.28-13.9-.73-10C32.6,23.94,33.68,34.88,41.92,34.1Zm4.78-5Zm-1.2-3.9Zm-.9-.51Zm-3.53,1.86v-.14c.08-.25.07-.84.33-1.16v-.06h0a2.28,2.28,0,0,1,.22-.22h0a3,3,0,0,1,2.64,0,4.72,4.72,0,0,1,.87.51,4.35,4.35,0,0,1,.48.48h0c.12.22.34.43.35.69a3.41,3.41,0,0,1,.22.95h0a6.44,6.44,0,0,1-.33,3h0c0,.34-.31.63-.48.92h0a4,4,0,0,1-.72.71A3.37,3.37,0,0,1,44,32a7.47,7.47,0,0,1-1.38-.8h0a5.05,5.05,0,0,1-.89-.9c.07.11,0,0,0-.05l-.32-.49a1.11,1.11,0,0,0,.12-.5h0a3.84,3.84,0,0,1-.3-1.33c0-.12-.13-1-.11-1.35Zm1.87,4.6h0s.09.05,0,0Zm-5.43-5Zm3.25,6.93a6.28,6.28,0,0,1-2.18-.44A6.2,6.2,0,0,1,37.52,32h0a5.07,5.07,0,0,1-.66-.65h0v-.06a1.93,1.93,0,0,1-.37-.69h0a4.76,4.76,0,0,1-.22-1.06h0c0-.3,0-.6,0-.9a8.23,8.23,0,0,1,.19-.86h0a4.43,4.43,0,0,1,.42-.7h0a5.62,5.62,0,0,1,.69-.69h0a4.73,4.73,0,0,1,2.87-1,6,6,0,0,0,3.35,7.67,6.19,6.19,0,0,1-2,.24,1.57,1.57,0,0,0-1-.28Z"></path>
      <path class="cls-10" d="M36.14,29.41Z"></path>
      <path class="cls-10" d="M46.34,30.44h0C46.31,30.5,46.32,30.5,46.34,30.44Z"></path>
      <path class="cls-10" d="M64.94,45.67c-.09-3.48-.33-6.91-.32-10.46,1.16-7.59.56-13.66-8.69-13.82-9-.54-18,.49-27-.27-2.5-.14-5.44-.23-7.33,1.69-3,4.6-.25,10.63-.64,15.76-.59,14-3,20,14.24,18,7.39.2,14.74.84,22.14.32C64.14,57.25,66.1,51.37,64.94,45.67Zm-39.64,10ZM36.67,52.5c0,1-.06,2.08-.11,3.12-4.5-.73-11.6,2.43-14.4-2.18h0c-1.37-5-.09-10.26-.19-15.33,7,3.2,12.27-2.43,14.86,3.17C36.84,45.05,36.85,48.72,36.67,52.5ZM36,38.4c-2.08-1.95-5-.12-7.45-.23A22.92,22.92,0,0,1,21.92,37c-.33-7.37-3.64-16.61,7.75-14.81C40.4,23.81,52.58,19.54,62.5,24.5c3.07,3.19.84,8,1.17,11.94C59.42,40,53.53,36.6,49,38.37,45.92,43,38.85,43.71,36,38.4Zm3.34,17.4-1.87-.11c.16-4.54.34-9.12.28-13.66a9,9,0,0,0,4.4,1.07c-.28,4.36.59,8.53.85,12.86C41.8,55.94,40.58,55.89,39.37,55.8Zm10.1.34C47.66,56,45.8,56.12,44,56c-.39-4.33-.76-8.6-.8-13a6.77,6.77,0,0,0,4.23-1.66,65.86,65.86,0,0,0,2,11.07h0c0,1.22.17,2.45.1,3.68Zm14.62-5.33c-.73,6.68-8.81,5-13.64,5.41.33-5.43-2.15-10.35-2.16-15.78,2.67-4,10.66.77,15.39-2.82C63.76,42.06,64.16,46.4,64.09,50.81Z"></path>
      <path class="cls-10" d="M67.5,45.59c-.46-5.92,3.93-22.67-.9-25.47-3.23-3.17-43.44-3.83-46.76-.89-2.32,1.71-2.49,4.89-2.48,7.54.13,9-.53,18.08-.75,27.11-3.48,24.47,9.93,18.06,27.25,18.95C78.41,72.56,65.93,72.17,67.5,45.59ZM36.58,68.18h0a15.12,15.12,0,0,1-1.65,1.65h-.06a6.49,6.49,0,0,1-1.88,1c-3.51,1.35-9,1.81-12.14-.49h-.07a8.87,8.87,0,0,1-1.51-1.49h0l-.08-.12a2.35,2.35,0,0,1-.9-1.25h0A5.91,5.91,0,0,1,18,66.13h0a6.84,6.84,0,0,1,.28-2.81h0a4.82,4.82,0,0,1,1.55-1.86h.05a9.7,9.7,0,0,1,2.7-1.17c1.7,0,3.6-.24,5,1h0a5.34,5.34,0,0,1,.95.95h0A2.69,2.69,0,0,1,29,63h0c0,.2.15.4.16.61h0v.55h0a1.3,1.3,0,0,1-.14.61h0a3.91,3.91,0,0,1-.4.65h0a2.8,2.8,0,0,1-.84.94h0a3.16,3.16,0,0,1-2.71.57,2.39,2.39,0,0,1-.34-.21.61.61,0,0,1-.44-.25h0a1.57,1.57,0,0,1-.23-1.06h0v-.35h0a1.6,1.6,0,0,1,.88-.85,3.88,3.88,0,0,1,1.07-.1h0v.07h0c.82,2.53,2-1.1-.52-1.24a2.6,2.6,0,0,0-.38,5.13c5.38.53,7-6.5,1.83-8.41,2.16,0,6.61,0,8.78.06.18,2.73.05,5.62,1,8.21ZM27.8,66.42Zm-3.73-.3Zm14,2.22h0s0,.06,0,0ZM48.44,64.8v.42a15.48,15.48,0,0,0-.2,1.72,5.45,5.45,0,0,1-.41,2h0a3.48,3.48,0,0,1-.38.64h0A2.4,2.4,0,0,1,47,70h-.06c-2.15,1.09-5.66.55-7.88-.94H39a4.43,4.43,0,0,1-.64-.66h0a3.57,3.57,0,0,1-.4-.68l-.45-.14a6,6,0,0,1-.35-2h0c-.17-1.86-.29-3.74-.33-5.61,3.07,0,6.14.17,9.21.24-.05,1.55.25,3.19-.31,4.66h0a2.06,2.06,0,0,1-.6.8h-.07a2.48,2.48,0,0,1-1.82.12,1.48,1.48,0,0,1-.27-.16h0a2.33,2.33,0,0,1-.46-.08h0a3,3,0,0,1-.32-.55h0a3.79,3.79,0,0,1-.28-1.24h0a18.24,18.24,0,0,1-.06-2.22c-1.26-1.88-1.1,2.07-.85,2.8a2.92,2.92,0,0,0,4.74,2.15c1.51-1.69,1.11-4.14,1.15-6.23h1.68A30.61,30.61,0,0,1,48.44,64.8Zm18.37-2.16a10.59,10.59,0,0,1,.55,4.51h0c0,.36-.22.6-.17.95a2.3,2.3,0,0,1-.23.37h0v.07a7,7,0,0,1-.8.74h-.07a7.19,7.19,0,0,1-1.91,1,17.56,17.56,0,0,1-11.56.2,7.18,7.18,0,0,1-1.57-.9h0c-.46-.13-.73-.56-1-.88h0a5.65,5.65,0,0,1-.68-1.13c0-.58.18-1.22.19-1.76h0a35.38,35.38,0,0,0,.25-5.63A96.28,96.28,0,0,0,59.53,60c-4.57.59-6.53,8-.87,8.17,2.12.07,4.76-1.71,3.84-4.07-.45-1.28-2.67-1.38-3,0,0,.77,1.32.81,1.18,0h.61l.06.06h0s0,.14.06.18h0a1.57,1.57,0,0,0,.08.29h0c0,.13,0,.26,0,.39h0a1.5,1.5,0,0,0-.06.29h0c0,.11-.18.26-.17.37h0a2.83,2.83,0,0,1-.3.3h0a2.13,2.13,0,0,1-.71.38,4.88,4.88,0,0,1-2.71.22,2.63,2.63,0,0,1-.58-.35l-.22.23a2.43,2.43,0,0,1-.33-.56v-.06h0a3.55,3.55,0,0,1-.19-.71h0v-.86h0a6.18,6.18,0,0,0,.12-.62h0a2.36,2.36,0,0,1,.34-.62h0a2.53,2.53,0,0,1,.79-1h0A8.32,8.32,0,0,1,59,61.21a10.77,10.77,0,0,1,6.6-.5,2.45,2.45,0,0,1,.42.43v.06A7.07,7.07,0,0,1,66.81,62.64ZM60.7,64.2h0Zm-.35-.41ZM66.9,40.43c-1.36,5.32,1.87,15.9-4.4,18.07-12.59,1.61-25.45-.28-38.11.26-4,1.11-7.36-2.41-6.85-6.39.45-8.35.8-16.75.77-25.14-.34-6.8,2.46-8.68,8.93-8.43C40,19.28,53.86,16.89,66,21,70.15,24.14,66.48,35.33,66.9,40.43Z"></path>
      <path class="cls-10" d="M38.73,69h.05S38.73,69,38.73,69Z"></path>
      <path class="cls-10" d="M43,65.79Z"></path>
      <path class="cls-10" d="M24,65.3h0S24,65.28,24,65.3Z"></path>
      <path class="cls-10" d="M28.61,65.61Z"></path>
      <path class="cls-10" d="M56.33,63.5v.06h0S56.34,63.5,56.33,63.5Z"></path>
      <path class="cls-10" d="M50.78,69.93Z"></path>
      <path class="cls-10" d="M55.5,71.7Z"></path>
      <path class="cls-10" d="M58.27,67.36h0Z"></path>
      <path class="cls-10" d="M61.83,64.65Z"></path>
      <path class="cls-10" d="M61.92,65.05V65h0Z"></path>
      <path class="cls-10" d="M70.19,19.13c-5.94-7.19-24-3.36-32.88-4.15-6.7.84-21.86-2.6-23.64,5.92-.4,7.26,1.48,14.6.48,21.87.45,9.57-2.74,20.29,2.2,29.06,2.93,3.94,8.11,4.41,12.64,3.83a110.37,110.37,0,0,1,31.07.12c15.38,2.54,11.29-14.7,11.22-24.28C69.88,40.86,75.37,29,70.19,19.13Zm1.19,9.13c-.44,9.77-1.68,19.49-.87,29.31,0,5.7,2.36,15.65-5.38,17.1-8,.71-16-1.7-24.14-1C33.2,73.22,22.56,78.44,17,71c-4.72-10.74-1-23.23-1.48-34.63.62-5.91-3.65-14.24,1.56-18.65C21.57,15,27,16.92,32,16.09c8.07-.09,16.19-.36,24.28,0C65.06,15.37,72.05,18.25,71.38,28.26Z"></path>
    </g>
  </g>
</svg>
