<?xml version="1.0" encoding="utf-8"?>
<!-- Generator: Adobe Illustrator 26.1.0, SVG Export Plug-In . SVG Version: 6.00 Build 0)  -->
<svg version="1.1" id="Calque_1" xmlns="http://www.w3.org/2000/svg" xmlns:xlink="http://www.w3.org/1999/xlink" x="0px" y="0px"
	 viewBox="0 0 23.3 23.7" style="enable-background:new 0 0 23.3 23.7;" xml:space="preserve">
<style type="text/css">
	.st0{fill:#F9C675;}
	.st1{fill:#E7B771;}
</style>
<g>
	<path class="st0" d="M0.4,5.9C0.2,6,0,6.2,0,6.4c0,2.5-0.2,15.9,0.6,17.1c0.8,1.2,19.5-6.1,22.4-7.2c0.2-0.1,0.4-0.3,0.3-0.5
		l-1-15.3c0-0.3-0.4-0.6-0.7-0.5L0.4,5.9z"/>
	<path class="st1" d="M23.3,15.9v-0.4L15,11.4l7.2-10.9c0-0.3-0.3-0.5-0.6-0.5l-8.9,13.5L0.6,5.9H0.4C0.2,5.9,0.1,6.1,0,6.2
		c0,0.1,0,0.1,0,0.2l9.8,6.2L0.5,23.2c0,0.2,0.1,0.3,0.2,0.4s0.2,0.1,0.4,0.1L10.5,13l2.4,1.5l1.6-2.5l8.5,4.2
		C23.2,16.2,23.3,16,23.3,15.9z"/>
</g>
</svg>
