<?xml version="1.0" encoding="UTF-8"?>
<!-- Generator: Adobe Illustrator 24.0.0, SVG Export Plug-In . SVG Version: 6.00 Build 0)  -->
<svg xmlns="http://www.w3.org/2000/svg" xmlns:xlink="http://www.w3.org/1999/xlink" version="1.1" id="Calque_1" x="0px" y="0px" viewBox="0 0 442.8 833.3" style="enable-background:new 0 0 442.8 833.3;" xml:space="preserve">
<style type="text/css">
	.st0{opacity:8.000000e-02;}
	.st1{clip-path:url(#SVGID_2_);}
	.st2{fill:#5A857D;}
	.st3{fill:#81B7AC;}
	.st4{fill:#DDA393;}
	.st5{fill:#34343F;}
	.st6{fill:#A6C5C1;}
	.st7{fill:#FFFFFF;}
	.st8{fill:#292A36;}
	.st9{fill:#DEC0B5;}
</style>
<g class="st0">
	<defs>
		<path id="SVGID_1_" class="st0" d="M441.4,36.4V795c0,21.3-19.5,38.6-43.7,38.6h-353C20.6,833.6,1,816.3,1,795V36.4    c0-20.5,18.8-37.1,42-37.1h356.3C422.6-0.8,441.4,15.9,441.4,36.4z"></path>
	</defs>
	<clipPath id="SVGID_2_">
		<use xlink:href="#SVGID_1_" style="overflow:visible;"></use>
	</clipPath>
	<g class="st1">
		<g>
			<path class="st2" d="M141.5,684.3c-9.9-131-155.8-139.6-155.8-139.6S-6.7,673.6,141.5,684.3z"></path>
			<path class="st3" d="M37.3,624.8c-1.5-0.3-0.9-2.4,0.6-2.1c13.9,3,27.7,6,41.6,9.1c-12.6-11.5-25.3-22.9-37.9-34.4     c-11-1.7-22-3.4-33-5.1c-1.6-0.2-0.9-2.3,0.6-2.1c9.8,1.5,19.6,3,29.4,4.5c-3.8-3.4-7.5-6.8-11.3-10.3c-10-9.1-20-18.1-30-27.2     c-1.1-1,0.6-2.5,1.8-1.5c14.1,12.8,28.2,25.6,42.4,38.4l-9.1-30c-0.4-1.4,2-1.9,2.4-0.5l9.8,32.4c0.1,0.3,0,0.6-0.1,0.8     c2.6,2.4,5.2,4.7,7.8,7c9.8,8.9,19.5,17.7,29.3,26.6c-2.8-13.7-5.7-27.3-8.5-41c-0.3-1.4,2.1-1.9,2.4-0.5     c3,14.6,6.1,29.2,9.1,43.8c0,0.1,0,0.3,0,0.4c6.8,6.2,13.6,12.4,20.4,18.5c4.6,4.2,9.3,8.4,13.9,12.7c-2.2-12-4.4-24-6.6-36     c-0.3-1.4,2.1-1.9,2.4-0.5c2.3,12.5,4.6,25,6.9,37.4c0,0.3,0,0.5-0.1,0.7c0.1,0.2,0.1,0.5,0,0.7c4.5,4.1,9,8.2,13.5,12.3     c1.1,1-0.6,2.5-1.8,1.5c-4.9-4.5-9.9-9-14.8-13.5c-13.8-3.3-27.6-6.6-41.4-9.8c-1.5-0.4-0.9-2.5,0.6-2.1     c12.5,3,24.9,5.9,37.4,8.9c-10.8-9.8-21.5-19.5-32.3-29.3c0,0-0.1,0-0.1,0C67.5,631.4,52.4,628.1,37.3,624.8z"></path>
		</g>
		<g>
			<path class="st3" d="M88.1,641c4.5,7.5,12.9,11.6,21.1,15.6c8.1,4.1,27.8,14.4,30,23c0.5,2,2.6,1.8,2.5-0.3     c-0.1-1.3,0.3-2.8,1-4.3c0.5-1.3,1.3-2.6,2.3-4c0-0.1,0.1-0.1,0.1-0.2c5.4-7.8,16-16.4,20.8-20.5c6.7-5.7,13.7-11.4,16-19.7     c1-3.7,1-7.7-0.8-11.2c-1.8-3.4-5.1-5.7-8.4-7.9c-3.7-2.4-7.4-4.8-8.5-9c-1.1-4.4,0.5-9,2.3-13c3.3-7.5,9-16.6,3.6-24.4     c-4-5.8-12.3-7-18.9-9.4c-3.8-1.4-7.2-3.3-9.2-6.6c-2.2-3.7-2.3-8.1-1.8-12.2c0.6-4.6,2.2-9,2.9-13.6c0.6-4.1,0.4-8.2-0.9-12.3     c-2.5-7.5-8.6-14-16.7-17.4c-1.6-0.7-3.2-1.2-4.9-1.6c0,0,0,0-0.1,0c-3.9-1-8.1-0.5-11.6,1.3c0,0,0,0-0.1,0l0,0     c-1.5,0.7-2.9,1.6-4.3,2.6c-6.9,5-11,12.6-11.4,20.5c-0.1,4.2,0.8,8.2,2.6,12.1c1.9,4.3,4.6,8.2,6.5,12.5     c1.7,3.8,2.7,8.1,1.7,12.2c-0.9,3.6-3.8,6.3-7,8.4c-5.7,3.8-13.4,6.7-15.7,13.2c-3,8.8,5,16.3,10.3,22.9     c2.9,3.5,5.7,7.6,5.9,12.1c0.1,4.2-2.8,7.4-5.7,10.5c-2.7,2.8-5.2,5.7-6,9.5C85,633.7,86.1,637.6,88.1,641z"></path>
			<path class="st2" d="M107.9,623.9c-1.1-1,0.9-2.3,2-1.3c8.9,8,17.7,15.9,26.6,23.9c-1.9-14-3.8-28-5.6-41.9c-0.4-3-0.8-6-1.2-9     l-24.5-24.9c-1-1.1,0.9-2.4,2-1.3c7.3,7.5,14.7,14.9,22,22.4c-2.2-16.2-4.4-32.4-6.5-48.6c-1.5-11.5-3.1-23-4.6-34.5     c-0.2-1.4,2.3-1.7,2.4-0.3c2.8,20.5,5.5,40.9,8.3,61.4l3.1,23.1l12.4-28.2c0.6-1.3,2.8-0.4,2.3,0.9c-4.7,10.5-9.3,21.1-14,31.6     c0,0.1-0.1,0.1-0.1,0.2c1.5,11.3,3,22.6,4.6,33.8c0.7,5.1,1.4,10.2,2.1,15.3c5.2-10.2,10.5-20.4,15.7-30.5     c0.7-1.3,2.9-0.4,2.3,0.9c-5.6,10.9-11.2,21.8-16.8,32.6c-0.2,0.3-0.4,0.5-0.7,0.6c0.7,5.2,1.4,10.4,2.1,15.6     c0.2,1.4-2.3,1.7-2.4,0.3c-0.7-5.3-1.4-10.7-2.2-16c0,0-0.1,0-0.1,0C127.2,641.2,117.5,632.5,107.9,623.9z"></path>
		</g>
		<path class="st4" d="M-57.7,626.8c3,2.7,6.5,5,10,7.3c3.5,2.3,7.2,4.5,11,6.5c7.3,3.9,14.9,7.2,22.9,9.8c3.3,2.4,6.7,4.7,10.2,6.8    c-6,0-11.9,1.1-17.5,3.1c-3.1,1.2-6.1,2.6-8.8,4.3c-2.6,1.6-5.2,3.5-6.6,6.1c-1.2,2.2-1.1,5.1,0.8,7c1.7,1.7,4.4,2,6.9,1.6    c3-0.5,5.8-1.9,8.5-3.1c3-1.4,5.9-3,8.7-4.7c5-3.1,9.6-6.8,13.8-10.8c8,4.6,16.5,8.6,25.2,12c-5.3,0.9-10.5,2.6-15.2,5    c-2.9,1.5-5.7,3.2-8.1,5.2c-2.2,1.8-4.4,3.8-5.2,6.5c-0.8,2.4,0.1,4.9,2.5,6.3c2.5,1.5,5.6,1.3,8.3,0.5c5.9-1.8,11.4-5.5,15.9-9.2    c3.9-3.3,7.3-7.1,10-11.3c9.6,3.3,19.4,5.9,29.5,7.7c0.1,0,0.2,0,0.3,0c-5,1.5-9.7,3.7-13.9,6.5c-2.4,1.6-4.7,3.5-6.7,5.5    c-2,2-4.2,4.3-5.1,6.9c-0.8,2.2-0.6,4.8,1.2,6.6c1.8,1.7,4.5,1.9,6.9,1.1c3-0.9,5.3-2.9,7.6-4.7c2.3-1.9,4.6-4,6.6-6.1    c4.2-4.4,7.7-9.3,10.6-14.5c0,0,0.1-0.1,0.1-0.2c10.8,1.5,21.7,2.2,32.6,1.9c-4.6,2.2-8.8,5-12.2,8.5c-4.3,4.3-7.4,9.4-9,14.9    c-0.8,2.8-1.1,6.2,1.9,8.2c3.1,2,6.4-0.2,8.8-2c9.8-7.7,16.2-18.4,18.1-29.9c8.9-0.5,17.7-1.5,26.4-3.1c1.5-0.3,1.2-2.5-0.3-2.2    c-8.3,1.6-16.8,2.6-25.3,3.1c-2-7.3-5.5-14.2-10.4-20.4c-4.4-5.5-9.9-10.4-16.2-14.2c-2.6-1.5-6.4-3.1-9.5-1.5    c-2.8,1.5-2.8,4.6-1.6,7c1.6,3.1,4.5,5.9,6.9,8.5c2.7,2.9,5.5,5.6,8.5,8.2c5.1,4.5,10.6,8.7,16.3,12.6c-3.4,0.1-6.8,0.1-10.1,0.1    c-8.4-0.2-16.8-0.9-25.1-2.1c-1.3-6.8-3.8-13.5-7.4-19.7c-1.8-2.9-3.8-5.7-6-8.4c-2.1-2.5-4.3-5.1-7.4-6.7    c-2.5-1.3-5.7-1.7-8.2-0.1c-2.3,1.6-3.1,4.4-2.6,6.9c0.7,3.2,3.1,5.9,5.3,8.5c2.2,2.6,4.6,5.2,7.2,7.6c4,3.9,8.3,7.5,12.9,10.8    c-10-1.8-19.9-4.3-29.4-7.5c0.2-0.6-0.1-1-0.7-1.2c-0.5-7.2-2.1-14.2-4.8-21c-1.3-3.1-2.7-6.2-4.5-9.2c-1.5-2.6-3-5.5-5.7-7.3    c-2.2-1.5-5.5-2.1-7.9-0.6c-2.2,1.4-2.6,3.9-2.2,6.1c0.6,2.7,2.1,5.3,3.5,7.8c1.6,2.9,3.3,5.7,5.2,8.5c3.3,5.1,7.1,10,11.1,14.7    c-0.7-0.3-1.4-0.5-2.1-0.8c-8.6-3.4-16.9-7.3-24.8-11.8c0.4-0.6-0.2-1.3-0.8-1.4c0.7-6.1,0.5-12.2-0.6-18.3    c-0.5-2.9-1.3-5.7-2.2-8.5c-0.9-2.6-1.7-5.4-3.4-7.7c-1.3-1.8-3.7-3.4-6.3-3.1c-2.5,0.2-4.1,2.1-4.6,4.1c-0.6,2.8,1,5.6,2.2,8.1    c1.3,2.9,2.6,5.9,3.9,8.8c2.2,5,4.4,10,6.6,15c-3.4-2.1-6.8-4.4-10.1-6.7c-0.1-0.3-0.3-0.5-0.7-0.7c-0.2,0-0.3-0.1-0.5-0.2    c-1.5-1.1-3-2.2-4.5-3.4c-3.9-6.6-8.8-12.7-14.7-18c-2.9-2.6-6.1-5.1-9.4-7.3c-3.2-2.1-6.8-4.7-10.9-5.4c-3.2-0.6-7,0.4-8.5,3.2    C-62.5,621-60.3,624.5-57.7,626.8z"></path>
	</g>
	<g class="st1">
		<g>
			<path class="st2" d="M273.3,667.8c25.3-129.4,171.3-124.6,171.3-124.6S422,670.8,273.3,667.8z"></path>
			<path class="st3" d="M383.9,618.2c1.6-0.2,1.2-2.3-0.4-2.1c-14.1,1.7-28.3,3.5-42.4,5.2c13.9-10.3,27.8-20.5,41.8-30.8     c11.1-0.7,22.3-1.4,33.4-2c1.6-0.1,1.2-2.2-0.4-2.1c-9.9,0.6-19.9,1.2-29.8,1.8c4.2-3.1,8.3-6.1,12.5-9.2c11-8.1,22-16.2,33-24.3     c1.2-0.9-0.3-2.6-1.6-1.7c-15.5,11.5-31.1,22.9-46.6,34.4l12.6-29c0.6-1.3-1.7-2.1-2.3-0.8L380,588.9c-0.1,0.3-0.1,0.6,0,0.8     c-2.9,2.1-5.7,4.2-8.6,6.3c-10.8,7.9-21.5,15.8-32.3,23.8c4.4-13.3,8.9-26.6,13.3-40c0.4-1.3-1.9-2.1-2.3-0.8     c-4.7,14.2-9.5,28.5-14.2,42.7c0,0.1-0.1,0.3,0,0.4c-7.5,5.5-15,11-22.5,16.6c-5.1,3.8-10.2,7.5-15.4,11.3     c3.6-11.7,7.2-23.5,10.8-35.2c0.4-1.3-1.9-2.1-2.3-0.8c-3.7,12.2-7.5,24.4-11.2,36.6c-0.1,0.3,0,0.5,0.1,0.7     c-0.1,0.2-0.1,0.5-0.1,0.7c-5,3.7-9.9,7.3-14.9,11c-1.2,0.9,0.3,2.6,1.6,1.7c5.4-4,10.9-8,16.3-12c14.1-2,28.2-4,42.3-6     c1.6-0.2,1.2-2.4-0.4-2.1c-12.7,1.8-25.5,3.6-38.2,5.4c11.8-8.7,23.7-17.4,35.5-26.2c0,0,0.1,0,0.1,0     C353.1,622,368.5,620.1,383.9,618.2z"></path>
		</g>
		<g>
			<path class="st3" d="M331.5,629.6c-5.4,7.1-14.2,10.3-22.8,13.6c-8.6,3.3-29.4,11.7-32.5,20.2c-0.7,2-2.8,1.5-2.5-0.5     c0.2-1.3,0-2.8-0.5-4.4c-0.4-1.3-1-2.8-1.8-4.2c0-0.1-0.1-0.1-0.1-0.2c-4.4-8.3-13.9-17.8-18.3-22.3c-6-6.3-12.3-12.6-13.6-21.1     c-0.6-3.8-0.1-7.8,2.2-11.1c2.2-3.2,5.7-5.2,9.3-7c3.9-2,7.9-4.1,9.5-8.1c1.7-4.3,0.6-9-0.8-13.2c-2.4-7.7-7-17.3-0.7-24.6     c4.7-5.4,13-5.8,19.9-7.6c3.9-1,7.6-2.6,9.9-5.8c2.6-3.5,3.3-7.9,3.2-12c-0.1-4.6-1.1-9.1-1.3-13.7c-0.1-4.2,0.6-8.2,2.4-12.1     c3.4-7.3,10.2-13.2,18.7-15.7c1.7-0.5,3.3-0.9,5.1-1.1c0,0,0,0,0.1,0c4-0.6,8.1,0.2,11.4,2.3c0,0,0,0,0.1,0l0,0     c1.4,0.9,2.7,1.9,4,3c6.3,5.6,9.5,13.6,8.9,21.4c-0.3,4.2-1.7,8.1-4,11.8c-2.4,4.1-5.6,7.8-8,11.9c-2.1,3.7-3.7,7.8-3.1,12     c0.5,3.7,3,6.6,6,9c5.2,4.3,12.6,7.9,14,14.6c2,9-6.9,15.8-12.9,21.8c-3.3,3.3-6.6,7.1-7.3,11.5c-0.6,4.2,1.9,7.7,4.4,11     c2.3,3.1,4.5,6.2,4.8,9.9C335.5,622.7,333.9,626.5,331.5,629.6z"></path>
			<path class="st2" d="M313.9,610.8c1.2-0.9-0.6-2.4-1.8-1.5c-9.7,7.1-19.5,14.2-29.2,21.3c3.5-13.7,7-27.5,10.5-41.2     c0.8-2.9,1.5-5.9,2.3-8.8l27.3-22.6c1.2-1-0.6-2.4-1.8-1.5c-8.2,6.8-16.4,13.5-24.5,20.3c4.1-15.9,8.1-31.8,12.2-47.7     c2.9-11.3,5.8-22.6,8.7-33.9c0.3-1.4-2-1.9-2.4-0.5c-5.1,20.1-10.3,40.2-15.4,60.3l-5.8,22.7l-9.1-29.2c-0.4-1.4-2.8-0.7-2.4,0.6     c3.4,10.9,6.8,21.8,10.2,32.7c0,0.1,0.1,0.1,0.1,0.2c-2.8,11.1-5.7,22.2-8.5,33.2c-1.3,5-2.6,10-3.9,15.1c-4-10.6-8-21.2-12-31.8     c-0.5-1.3-2.9-0.7-2.4,0.6c4.3,11.3,8.6,22.7,12.8,34c0.1,0.3,0.4,0.5,0.6,0.6c-1.3,5.1-2.6,10.2-3.9,15.3     c-0.3,1.4,2,1.9,2.4,0.5c1.3-5.2,2.7-10.5,4-15.7c0,0,0.1,0,0.1,0C292.6,626.3,303.2,618.5,313.9,610.8z"></path>
		</g>
		<path class="st4" d="M478.2,628.9c-3.3,2.4-7.1,4.4-10.8,6.3c-3.8,2-7.7,3.8-11.7,5.5c-7.7,3.2-15.7,5.8-23.9,7.7    c-3.6,2.1-7.2,4-10.9,5.9c5.9,0.6,11.7,2.2,17,4.7c2.9,1.4,5.7,3.2,8.2,5.1c2.3,1.8,4.8,4,5.9,6.6c0.9,2.3,0.5,5.2-1.6,6.9    c-1.9,1.5-4.6,1.6-7,1c-3-0.8-5.6-2.4-8.1-3.9c-2.8-1.7-5.5-3.5-8.1-5.5c-4.6-3.6-8.8-7.6-12.4-12c-8.5,3.8-17.4,7-26.5,9.6    c5.2,1.4,10.1,3.6,14.5,6.4c2.7,1.7,5.2,3.7,7.5,5.9c2,2,3.9,4.2,4.4,6.9c0.5,2.4-0.6,4.9-3.2,6.1c-2.7,1.2-5.7,0.8-8.3-0.3    c-5.6-2.3-10.7-6.5-14.7-10.6c-3.5-3.7-6.4-7.8-8.6-12.2c-9.9,2.4-20,4.1-30.2,4.9c-0.1,0-0.2,0-0.3,0c4.8,1.9,9.2,4.6,13,7.8    c2.2,1.9,4.3,3.9,6,6.1c1.8,2.2,3.6,4.6,4.3,7.3c0.6,2.3,0.1,4.9-2,6.4c-2,1.6-4.7,1.4-7,0.5c-2.8-1.1-5-3.4-7-5.4    c-2.1-2.1-4.1-4.4-5.8-6.7c-3.7-4.8-6.6-10-8.8-15.4c0-0.1,0-0.1-0.1-0.2c-10.9,0.5-21.8,0.2-32.6-1c4.3,2.6,8.2,5.8,11.2,9.6    c3.7,4.7,6.2,10,7.2,15.7c0.5,2.9,0.3,6.3-2.8,8c-3.3,1.7-6.4-0.8-8.5-2.8c-8.8-8.6-14-19.8-14.5-31.4c-8.8-1.3-17.4-3.1-25.9-5.5    c-1.5-0.4-0.9-2.6,0.6-2.1c8.1,2.3,16.4,4.1,24.8,5.4c2.8-7.1,7.1-13.7,12.7-19.3c5-5,11-9.5,17.8-12.6c2.8-1.3,6.8-2.5,9.6-0.6    c2.6,1.8,2.2,4.8,0.7,7.1c-1.9,3-5.1,5.4-7.9,7.8c-3,2.6-6.1,5.1-9.4,7.4c-5.6,4.1-11.5,7.7-17.7,11c3.3,0.4,6.7,0.8,10.1,1    c8.4,0.6,16.8,0.7,25.2,0.3c2.1-6.7,5.3-13.1,9.7-18.9c2.1-2.7,4.4-5.4,7-7.8c2.4-2.3,4.9-4.7,8.2-6c2.7-1.1,5.8-1.2,8.1,0.6    c2.1,1.8,2.6,4.7,1.8,7.1c-1.1,3.1-3.8,5.6-6.2,7.9c-2.5,2.4-5.2,4.8-8,7c-4.4,3.5-9.2,6.7-14.1,9.6c10.2-0.8,20.3-2.4,30.1-4.8    c-0.2-0.6,0.3-1,0.8-1.1c1.4-7.1,3.8-14,7.2-20.5c1.6-3,3.5-5.9,5.5-8.7c1.8-2.4,3.7-5.2,6.5-6.7c2.4-1.3,5.7-1.5,7.9,0.2    c2,1.6,2.1,4.1,1.4,6.3c-0.9,2.7-2.8,5.1-4.4,7.4c-1.9,2.7-4,5.4-6.1,8c-3.9,4.8-8.2,9.3-12.8,13.6c0.7-0.2,1.5-0.4,2.2-0.6    c8.9-2.6,17.6-5.8,26-9.5c-0.3-0.7,0.3-1.3,1-1.4c0-6.1,0.9-12.2,2.7-18.2c0.9-2.8,1.9-5.6,3.2-8.3c1.2-2.5,2.4-5.2,4.3-7.4    c1.5-1.7,4.1-3,6.6-2.5c2.5,0.5,3.9,2.4,4.1,4.5c0.3,2.8-1.7,5.5-3.1,7.8c-1.6,2.8-3.3,5.6-4.9,8.4c-2.8,4.8-5.6,9.5-8.3,14.3    c3.7-1.8,7.3-3.7,10.8-5.7c0.1-0.3,0.4-0.5,0.8-0.6c0.2,0,0.4-0.1,0.5-0.1c1.6-0.9,3.3-1.9,4.9-2.9c4.7-6.2,10.3-11.8,16.8-16.6    c3.2-2.4,6.6-4.5,10.2-6.4c3.4-1.8,7.3-4,11.4-4.4c3.3-0.3,6.9,1.1,8.1,4C483.6,623.6,481.1,626.8,478.2,628.9z"></path>
	</g>
	<g class="st1">
		<path class="st5" d="M481-68.2v358.8c-16,2.2-31.2,10.1-39.7,22.4c-8.8,12.7-10.6,28-14.5,42.4c-3.9,14.4-11.5,29.6-26.6,36.1    c-19.9,8.5-44.4-1.3-65.4,4.8c-15,4.3-25.7,16.1-33.4,28.3c-7.6,12.2-13.3,25.5-22.9,36.6c-16,18.5-43,29.3-69.3,27.6    c-26.4-1.7-51.3-15.8-64.1-36.2c-6.4-10.2-9.8-21.5-15.4-32c-5.6-10.5-14.1-20.7-26.4-24.6c-18.4-5.9-41.6,3-57.3-7.4    c-15.7-10.4-12-31.7-17.7-48.4c-7-20.3-31.9-34-55.6-32.1V-68.2H481z"></path>
		<g id="XMLID_1_">
			<g>
				<path class="st4" d="M214,520.1c21.3-0.7,21.5-40,21.5-40l9.2-0.9c10.3,52.4,36.2,61.9,36.2,61.9l-13.9,63      c0,0,33.9,37,35.7,50.8c0,0-33,12.3-88,12.3c-55,0-89.2-12.3-89.2-12.3c1.7-13.8,35.7-50.8,35.7-50.8l-13.9-63      c0,0,25.9-9.5,36.2-61.9l9.2,0.9C192.5,480.1,192.6,519.5,214,520.1z"></path>
				<path class="st6" d="M206.9,721.4v-27.1c-4.5,0.8-7.2,1.3-7.2,1.3s-40.6-23.8-57.5-25c-11.4-0.7-21.6,14.1-24.2,23.6      c-1.2,4.6-0.7,7.9,2.4,7.7C126.7,701.5,161.3,712.5,206.9,721.4z M344.4,725.6c-17.1,5.1-38.4,7.6-63.6,5.9      c-12.3-0.8-24.4-2.1-36.2-3.8v15.7c-133.4,16.8-219.5-6.1-202.5-47.8c19.2-47.3,83.2-40.7,83.2-40.7s34.2,12.3,89.2,12.3      c55,0,88-12.3,88-12.3s84.4-3.7,90.8,21.4C397.7,693.4,380.4,715.1,344.4,725.6z"></path>
				<path class="st7" d="M344.4,725.6c0.1,3.9,0.2,11.6,0,15.9c-0.2,5.9-88.7,0.4-88.7,0.4c-3.7,0.5-7.4,1-11,1.5v-15.7      c11.8,1.6,23.9,2.9,36.2,3.8C305.9,733.2,327.3,730.7,344.4,725.6z"></path>
				<path class="st7" d="M118,694.3c2.6-9.5,12.8-24.3,24.2-23.6c16.8,1.1,57.5,25,57.5,25s2.7-0.5,7.2-1.3v27.1      c-45.6-8.9-80.2-19.9-86.5-19.5C117.4,702.1,116.8,698.8,118,694.3z"></path>
				<path class="st7" d="M333.8,389.2c3.7,18.2-42.4,127-42.4,127l-10.6,25c0,0-25.9-9.5-36.2-61.9l51.5-84.1l-77.5-74.5      c-3-2-4.1-6-4.1-10.5c0-8.9,4.1-19.7,4.1-19.7v-41.3c13.7,0.7,16.7,57.7,16.7,57.7S330.1,371,333.8,389.2z"></path>
				<path class="st7" d="M250.5,412.2c1.9,0.3,7.7,1.8,8.1,8.5c0.5,7.9-6.4,10.6-6.4,10.6c-1.6,20.3-18.8,29.9-18.8,29.9l2,19      c0,0-0.1,39.3-21.5,40c-21.4-0.7-21.5-40-21.5-40l2-19c0,0-17.2-9.6-18.8-29.9c0,0-6.9-2.7-6.4-10.6c0.3-4.7,3.3-6.8,5.7-7.7      l0,0c12.5-1,24.8-4.8,34.6-11.6c7.5-5.1,13.6-11.7,18-19.1C237.6,390.4,245.6,400.8,250.5,412.2z"></path>
				<path class="st7" d="M209.3,290.5c0,0,4.1,10.8,4.1,19.7c0,4.5-1,8.5-4.1,10.5l-77.5,74.5l51.5,84.1      c-10.3,52.4-36.2,61.9-36.2,61.9l-10.6-25c0,0-46.1-108.8-42.4-127c3.7-18.2,98.5-82.4,98.5-82.4s3-57.1,16.7-57.7V290.5z"></path>
			</g>
		</g>
		<path class="st8" d="M499.9-73.1v315.9c-4-0.9-8-1.6-12.1-1.7c-7.1-0.2-14.1,0.9-20.8,2.9c-14.6,4.4-27.3,12.7-39.6,20.7    c-12.7,8.3-25.2,17-39.3,23.4c-11.2,5.1-23.3,8.3-35.7,8.3c-3.3,0-6.6-0.2-10-0.7c-19.5-2.8-36.6-14-49.1-27.1    c-27.9-29.1-36.1-69.9-68.8-95.9c-14.9-11.8-33-17-52.8-16.2c-19.4,0.8-38.1,5.9-57.1,9.2c-18.2,3.2-37.5,5.1-55.3-0.4    c-17.5-5.4-31-17-40.2-31c-21.1-31.9-18.6-70-32.6-104c-2.4-2.9-5-5.6-8-8.1c-10-8.4-22.7-11.9-35.9-14v-81.1H499.9z"></path>
		<path class="st8" d="M295.5,666.6c-22.2,6.8-44.4,13.6-66.6,20.4c-6.3,1.9-12.6,3.8-18.9,5.8c-1.6,0.5-0.9,2.8,0.7,2.3    c22.2-6.8,44.4-13.6,66.6-20.4c6.3-1.9,12.6-3.8,18.9-5.8C297.9,668.4,297.2,666.1,295.5,666.6z"></path>
		<path class="st8" d="M386.4,691.9c-0.5-0.4-1.4-0.5-1.9,0c-4.1,4.6-9.1,8.5-14.9,11.4c-1.5,0.7-0.2,2.8,1.3,2    c6-3,11.3-6.9,15.5-11.7C386.8,693.1,386.9,692.4,386.4,691.9z"></path>
		<path class="st8" d="M376.9,694.1c-0.3-0.5-1.2-0.8-1.8-0.4c-3.2,2-6.4,3.9-9.6,5.9c-0.6,0.4-0.9,1-0.5,1.6    c0.3,0.5,1.2,0.8,1.8,0.4l9.6-5.9C377,695.3,377.3,694.6,376.9,694.1z"></path>
		<path class="st8" d="M240.5,728.3c-9.1-2.3-18.3-4.5-27.4-6.8c-1.7-0.4-2.4,1.9-0.7,2.3c9.1,2.3,18.3,4.5,27.4,6.8    C241.4,730.9,242.1,728.7,240.5,728.3z"></path>
		<path class="st8" d="M201.7,556.5c-10.2,8-25.7,8.4-36.4,0.8c-1.3-0.9-3.2,0.7-1.9,1.7c11.9,8.4,28.8,8.1,40.2-0.8    C204.9,557.2,203,555.5,201.7,556.5z"></path>
		<path class="st8" d="M262.6,555.3c-10.2,8-25.7,8.4-36.4,0.8c-1.3-0.9-3.2,0.7-1.9,1.7c11.9,8.4,28.8,8.1,40.2-0.8    C265.7,555.9,263.8,554.3,262.6,555.3z"></path>
		<path class="st8" d="M112.3,695.8c-6.2-2-12.3-4-18.5-6.1c-1.6-0.5-2.3,1.8-0.7,2.3c6.2,2,12.3,4,18.5,6.1    C113.2,698.6,113.9,696.3,112.3,695.8z"></path>
		<path class="st8" d="M218.5,439.1c-2.3,0-4.5-0.1-6.8-0.1c0.1-7.5,0.2-15.1,0.3-22.6c0-1.5-2.7-1.5-2.7,0    c-0.1,7.9-0.2,15.8-0.3,23.6c0,0.4,0.2,0.7,0.4,0.9c0.2,0.3,0.6,0.4,1,0.4c2.7,0,5.4,0.1,8.1,0.1c0.7,0,1.4-0.6,1.3-1.2    C219.8,439.7,219.3,439.2,218.5,439.1z"></path>
		<path class="st8" d="M225.4,446.8c-6.5,5.7-17,6.1-23.9,0.7c-1.3-1-3.2,0.7-1.9,1.7c8,6.2,20.1,6,27.7-0.7    C228.5,447.3,226.6,445.7,225.4,446.8z"></path>
		<path class="st8" d="M201.1,416.8c-4.7,2.7-11,2.7-15.7-0.1c-1.4-0.9-2.8,1.2-1.3,2c5.4,3.3,12.9,3.3,18.4,0.1    C203.9,418,202.5,416,201.1,416.8z"></path>
		<path class="st8" d="M242.3,415.7c-4.7,2.7-11,2.7-15.7-0.1c-1.4-0.9-2.8,1.2-1.3,2c5.4,3.3,12.9,3.3,18.4,0.1    C245,416.9,243.7,414.8,242.3,415.7z"></path>
		<ellipse class="st9" cx="189.5" cy="440.8" rx="9.2" ry="8.1"></ellipse>
		<ellipse class="st9" cx="237.1" cy="438.3" rx="9.2" ry="8.1"></ellipse>
	</g>
	<g class="st1">
		<path class="st7" d="M334,375.4c-5.2,0-5.2,7.1,0,7.1C339.1,382.5,339.1,375.4,334,375.4z"></path>
		<path class="st7" d="M347.3,355.9c-0.2-0.4-0.4-0.8-0.8-1.1c-0.4-0.3-0.8-0.6-1.3-0.7c-0.5-0.2-1-0.3-1.5-0.3    c-0.4,0-0.7,0.1-1.1,0.1c-0.7,0.2-1.3,0.5-1.8,0.9l-0.6,0.7c-0.4,0.6-0.5,1.1-0.5,1.8v0.7c0,0.5,0.1,0.9,0.3,1.4    c0.2,0.4,0.4,0.8,0.8,1.1c0.4,0.3,0.8,0.6,1.3,0.7c0.5,0.2,1,0.3,1.5,0.3c0.4,0,0.7-0.1,1.1-0.1c0.7-0.2,1.3-0.5,1.8-0.9l0.6-0.7    c0.4-0.6,0.5-1.1,0.5-1.8v-0.7C347.6,356.8,347.5,356.3,347.3,355.9z"></path>
		<path class="st7" d="M360,374.1c-5.2,0-5.2,7.1,0,7.1C365.1,381.1,365.1,374.1,360,374.1z"></path>
		<path class="st7" d="M55.4,318.8c-5.2,0-5.2,7.1,0,7.1C60.6,325.9,60.6,318.8,55.4,318.8z"></path>
		<path class="st7" d="M76.2,291.3c-5.2,0-5.2,7.1,0,7.1C81.4,298.3,81.4,291.3,76.2,291.3z"></path>
		<path class="st7" d="M88.1,334.8c-0.2-0.4-0.4-0.8-0.8-1.1c-0.4-0.3-0.8-0.6-1.3-0.7c-0.5-0.2-1-0.3-1.5-0.3    c-0.4,0-0.7,0.1-1.1,0.1c-0.7,0.2-1.3,0.5-1.8,0.9l-0.6,0.7c-0.4,0.6-0.5,1.1-0.5,1.8v1.3c0,0.5,0.1,0.9,0.3,1.4    c0.2,0.4,0.4,0.8,0.8,1.1c0.4,0.3,0.8,0.6,1.3,0.7c0.5,0.2,1,0.3,1.5,0.3c0.4,0,0.7-0.1,1.1-0.1c0.7-0.2,1.3-0.5,1.8-0.9l0.6-0.7    c0.4-0.6,0.5-1.1,0.5-1.8v-1.3C88.5,335.7,88.3,335.2,88.1,334.8z"></path>
		<path class="st7" d="M65.1,360.2c-5.2,0-5.2,7.1,0,7.1C70.3,367.2,70.3,360.2,65.1,360.2z"></path>
		<path class="st7" d="M403.8,91.6c-5.2,0-5.2,7.1,0,7.1C408.9,98.7,409,91.6,403.8,91.6z"></path>
		<path class="st7" d="M423.9,68.6c-5.2,0-5.2,7.1,0,7.1C429,75.7,429,68.6,423.9,68.6z"></path>
		<path class="st7" d="M399.3,57.5c-5.2,0-5.2,7.1,0,7.1C404.5,64.6,404.5,57.5,399.3,57.5z"></path>
		<path class="st7" d="M365.9,358.2c-3.4,0-3.4,4.7,0,4.7C369.3,362.9,369.4,358.2,365.9,358.2z"></path>
		<path class="st7" d="M358.5,335.2c-3.4,0-3.4,4.7,0,4.7C361.9,339.9,361.9,335.2,358.5,335.2z"></path>
		<path class="st7" d="M330.2,335.9c-3.4,0-3.4,4.7,0,4.7C333.7,340.6,333.7,335.9,330.2,335.9z"></path>
		<path class="st7" d="M324.3,356.9c-3.4,0-3.4,4.7,0,4.7C327.7,361.6,327.7,356.9,324.3,356.9z"></path>
		<path class="st7" d="M104.8,316.5c-0.1-0.4-0.4-0.7-0.7-1c-0.2-0.1-0.4-0.2-0.5-0.4c-0.4-0.2-0.9-0.3-1.3-0.3h-0.7    c-0.4,0-0.7,0.1-1,0.2c-0.3,0.1-0.6,0.3-0.9,0.5c-0.3,0.2-0.4,0.5-0.6,0.8c-0.2,0.3-0.2,0.6-0.2,0.9l0.1,0.6    c0.1,0.4,0.4,0.7,0.7,1c0.2,0.1,0.4,0.2,0.5,0.4c0.4,0.2,0.9,0.3,1.3,0.3h0.7c0.4,0,0.7-0.1,1-0.2c0.3-0.1,0.6-0.3,0.9-0.5    c0.3-0.2,0.4-0.5,0.6-0.8c0.2-0.3,0.2-0.6,0.2-0.9C104.9,316.9,104.9,316.7,104.8,316.5z"></path>
		<path class="st7" d="M122.3,333.8c-3.4,0-3.4,4.7,0,4.7C125.8,338.5,125.8,333.8,122.3,333.8z"></path>
		<path class="st7" d="M96.3,361.3c-3.4,0-3.4,4.7,0,4.7C99.8,366.1,99.8,361.3,96.3,361.3z"></path>
		<path class="st7" d="M57.7,341c-3.4,0-3.4,4.7,0,4.7C61.1,345.7,61.1,341,57.7,341z"></path>
		<path class="st7" d="M20.8,37.3c-3.4,0-3.4,4.7,0,4.7C24.2,42.1,24.2,37.3,20.8,37.3z"></path>
		<path class="st7" d="M38.6,14.7c-3.4,0-3.4,4.7,0,4.7C42.1,19.4,42.1,14.7,38.6,14.7z"></path>
		<path class="st7" d="M64.3,26.5c-3.4,0-3.4,4.7,0,4.7C67.7,31.2,67.7,26.5,64.3,26.5z"></path>
		<path class="st7" d="M45.3,42.3c-3.4,0-3.4,4.7,0,4.7C48.7,47,48.7,42.3,45.3,42.3z"></path>
		<path class="st7" d="M25.2,65.9c-3.4,0-3.4,4.7,0,4.7C28.7,70.6,28.7,65.9,25.2,65.9z"></path>
		<path class="st7" d="M414.2,41c-0.1-0.4-0.4-0.7-0.7-1c-0.4-0.3-0.7-0.7-1.1-1c-0.2-0.2-0.5-0.4-0.9-0.5c-0.3-0.1-0.7-0.2-1-0.2    c-0.4,0-0.7,0.1-1,0.2c-0.3,0.1-0.6,0.3-0.9,0.5c-0.1,0.2-0.3,0.3-0.4,0.5c-0.2,0.4-0.4,0.8-0.4,1.2c0,0.2,0.1,0.4,0.1,0.6    c0.1,0.4,0.4,0.7,0.7,1c0.4,0.3,0.7,0.7,1.1,1c0.2,0.2,0.5,0.4,0.9,0.5c0.3,0.1,0.7,0.2,1,0.2c0.4,0,0.7-0.1,1-0.2    c0.3-0.1,0.6-0.3,0.9-0.5c0.1-0.2,0.3-0.3,0.4-0.5c0.2-0.4,0.4-0.8,0.4-1.2C414.2,41.5,414.2,41.2,414.2,41z"></path>
		<path class="st7" d="M389.3,14.7c-3.4,0-3.4,4.7,0,4.7C392.7,19.4,392.7,14.7,389.3,14.7z"></path>
		<path class="st7" d="M372.6,36.3c-3.4,0-3.4,4.7,0,4.7C376,41.1,376,36.3,372.6,36.3z"></path>
		<path class="st7" d="M426.3,105.6c-0.1-0.3-0.3-0.5-0.6-0.8c-0.2-0.2-0.5-0.4-0.9-0.5c-0.3-0.1-0.7-0.2-1-0.2l-0.7,0.1    c-0.5,0.1-0.8,0.3-1.2,0.6c-0.1,0.2-0.3,0.3-0.4,0.5c-0.2,0.4-0.4,0.8-0.4,1.2v1c0,0.3,0.1,0.6,0.2,0.9c0.1,0.3,0.3,0.5,0.6,0.8    c0.2,0.2,0.5,0.4,0.9,0.5c0.3,0.1,0.7,0.2,1,0.2c0.2,0,0.5-0.1,0.7-0.1c0.5-0.1,0.8-0.3,1.2-0.6c0.1-0.2,0.3-0.3,0.4-0.5    c0.2-0.4,0.4-0.8,0.4-1.2v-1C426.5,106.2,426.5,105.9,426.3,105.6z"></path>
	</g>
</g>
</svg>