<?xml version="1.0" encoding="UTF-8"?>
<!-- Generator: Adobe Illustrator 24.0.0, SVG Export Plug-In . SVG Version: 6.00 Build 0)  -->
<svg xmlns="http://www.w3.org/2000/svg" xmlns:xlink="http://www.w3.org/1999/xlink" version="1.1" id="Calque_1" x="0px" y="0px" viewBox="0 0 442.8 833.3" style="enable-background:new 0 0 442.8 833.3;" xml:space="preserve">
<style type="text/css">
	.st0{opacity:8.000000e-02;}
	.st1{fill:#DEC0B5;}
	.st2{clip-path:url(#SVGID_2_);}
	.st3{fill:#34343F;}
	.st4{fill:#292A36;}
	.st5{fill:#FFFFFF;}
	.st6{fill:#DDA393;}
	.st7{fill:#5A857D;}
	.st8{fill:#81B7AC;}
</style>
<g class="st0">
	<g>
		<g>
			<g>
				<g>
					<g>
						
							<image style="overflow:visible;opacity:0.5;" width="1904" height="3463" transform="matrix(0.24 0 0 0.24 -3.7257 -3.2413)">
						</image>
						<g>
							<g>
								<g>
									<g>
										<g>
											<g>
												<g>
													<g>
														<g>
															<path class="st1" d="M441.1,39.4v739.7c0,20.1-18.9,36.5-42.3,36.5H44.6c-23.4,0-42.3-16.3-42.3-36.5V39.4                 C2.3,19.3,21.2,3,44.6,3h354.2C422.2,3,441.1,19.3,441.1,39.4z"></path>
														</g>
													</g>
												</g>
											</g>
										</g>
									</g>
								</g>
							</g>
						</g>
					</g>
				</g>
			</g>
		</g>
	</g>
	<g>
		<defs>
			<path id="SVGID_1_" d="M441.1,39.4v739.7c0,20.1-18.9,36.5-42.3,36.5H44.6c-23.4,0-42.3-16.3-42.3-36.5V39.4     C2.3,19.3,21.2,3,44.6,3h354.2C422.2,3,441.1,19.3,441.1,39.4z"></path>
		</defs>
		<clipPath id="SVGID_2_">
			<use xlink:href="#SVGID_1_" style="overflow:visible;"></use>
		</clipPath>
		<g class="st2">
			<path class="st3" d="M458.8-127.9v545.9c-1,7.7-1,15.6-2,23.3c-1.7,12.9-6.9,26.8-19.8,33.6c-16.8,8.8-39.5,2.4-57.2,9.8     c-30.4,12.6-27.8,56.2-58.3,68.6c-5.4,2.2-11.1,3.1-17,3.1c-9.4,0-19.1-2.3-28.1-5.1c-14.5-4.6-28.8-10.8-44.3-11.1     c-17.4-0.3-33.7,6.9-50.1,12.2c-9.4,3-19.7,5.4-29.6,5.4c-7.4,0-14.6-1.3-21-4.6c-22.8-11.8-24.4-42.7-47.6-53.9     c-22.5-10.8-54.4,2.5-74.5-11.2c-17.1-11.7-13.9-34.4-20.2-52.4c-1.1-3.2-2.7-6.4-4.5-9.3v-554.2H458.8z"></path>
			<path class="st4" d="M458.8-127.9V78.3c-3.7,4.4-8.1,8.4-12.9,11.9c-21.8,16-53.1,23.5-67.1,45c-13.3,20.4-6,45.7-0.1,68.6     c5.9,22.9,8.7,50-10.4,66.6c-17.9,15.5-47.1,14.9-69.6,25c-20.5,9.1-34,26.4-50.1,40.5c-16.1,14.2-39.1,26.3-61.2,20.6     c-31.1-8-39.6-44.5-68.1-58.1c-19.2-9.2-44.5-6.1-62.3-17.1c-12.9-7.9-19.2-21.5-22.7-34.8c-3.5-13.3-4.9-27.1-10.9-39.7     c-7.3-15.2-21.7-27.5-38.9-34.5v-300.3H458.8z"></path>
			<path class="st5" d="M439.6,808.7H3.8c0.6-13.5,2.2-73,7.3-85.7c5.6-13.9,15.7-26.9,30.4-34.4c17.3-8.9,38.5-9.2,58.6-10     c20.1-0.8,41.6-2.8,57-13.9c13.3-9.6,19.8-24.5,22.7-39.2c2.7-14,2.5-28.3,4.5-42.4c-27-14.2-34.8-43.5-36.9-61.7     c-13.8-5.5-22.9-18.7-21.8-31.8c0.3-4,1.6-8.1,4.8-11c2.8-2.6,7.1-4,11.2-3.7c3.5,0.2,6.8,1.7,9.1,3.9c3.8-8.6,13.2-14.8,22.9-19     c11.3-4.9,23.7-7.8,35-12.8c4.6-2,9.1-4.5,13.1-7.4c4,2.9,8.5,5.4,13.1,7.4c11.3,5,23.7,7.9,35,12.8c9.7,4.2,19.1,10.4,22.9,19     c2.3-2.2,5.7-3.7,9.1-3.9c4.1-0.3,8.4,1.1,11.3,3.7c3.2,2.9,4.5,7,4.8,11c1,13.1-8.1,26.3-21.8,31.8     c-2.1,18.3-9.9,47.4-36.9,61.7c2,14.1,1.8,28.4,4.5,42.4c2.8,14.7,9.4,29.6,22.7,39.2c15.4,11.1,36.9,13.1,57,13.9     c20.1,0.8,41.3,1.2,58.6,10c14.6,7.5,24.8,20.5,30.3,34.4C437.4,735.7,439.1,795.2,439.6,808.7z"></path>
			<g>
				<path class="st5" d="M57.4,473c-5.2,0-5.2,6.9,0,6.9C62.5,479.9,62.6,473,57.4,473z"></path>
				<path class="st5" d="M97.8,484.5c-5.2,0-5.2,6.9,0,6.9C103,491.4,103,484.5,97.8,484.5z"></path>
				<path class="st5" d="M93,458c-5.2,0-5.2,6.9,0,6.9C98.2,464.9,98.2,458,93,458z"></path>
				<path class="st5" d="M375,546.2c-5.2,0-5.2,6.9,0,6.9C380.2,553.1,380.2,546.2,375,546.2z"></path>
				<path class="st5" d="M398,534.7c-5.2,0-5.2,6.9,0,6.9C403.2,541.6,403.2,534.7,398,534.7z"></path>
				<path class="st5" d="M376.9,508.1c-5.2,0-5.2,6.9,0,6.9C382,515,382,508.1,376.9,508.1z"></path>
				<path class="st5" d="M402.6,318.2c-5.2,0-5.2,6.9,0,6.9C407.8,325.1,407.8,318.2,402.6,318.2z"></path>
				<path class="st5" d="M383.3,305.9c-5.2,0-5.2,6.9,0,6.9C388.5,312.8,388.5,305.9,383.3,305.9z"></path>
				<path class="st5" d="M421.9,280.3c-5.2,0-5.2,6.9,0,6.9C427,287.2,427,280.3,421.9,280.3z"></path>
				<path class="st5" d="M32.7,314.6c-5.2,0-5.2,6.9,0,6.9C37.8,321.5,37.9,314.6,32.7,314.6z"></path>
				<path class="st5" d="M35.2,269.9c-5.2,0-5.2,6.9,0,6.9C40.3,276.8,40.3,269.9,35.2,269.9z"></path>
				<path class="st5" d="M53,302.7c-5.2,0-5.2,6.9,0,6.9C58.1,309.6,58.1,302.7,53,302.7z"></path>
				<path class="st5" d="M424.9,319.4c-3.4,0-3.4,4.6,0,4.6C428.3,324,428.3,319.4,424.9,319.4z"></path>
				<path class="st5" d="M398.6,284.8c-3.4,0-3.4,4.6,0,4.6C402.1,289.4,402.1,284.8,398.6,284.8z"></path>
				<path class="st5" d="M53,329.8c-3.4,0-3.4,4.6,0,4.6C56.4,334.4,56.4,329.8,53,329.8z"></path>
				<path class="st5" d="M62.9,349.9c-3.4,0-3.4,4.6,0,4.6C66.3,354.5,66.3,349.9,62.9,349.9z"></path>
				<path class="st5" d="M31.7,369.9c-3.4,0-3.4,4.6,0,4.6C35.1,374.5,35.1,369.9,31.7,369.9z"></path>
				<path class="st5" d="M67.3,458c-3.4,0-3.4,4.6,0,4.6C70.7,462.6,70.7,458,67.3,458z"></path>
				<path class="st5" d="M78.2,475.9c-3.4,0-3.4,4.6,0,4.6C81.6,480.5,81.6,475.9,78.2,475.9z"></path>
				<path class="st5" d="M116.7,457.6c-3.4,0-3.4,4.6,0,4.6C120.2,462.2,120.2,457.6,116.7,457.6z"></path>
				<path class="st5" d="M403.4,517c-3.4,0-3.4,4.6,0,4.6C406.9,521.6,406.9,517,403.4,517z"></path>
				<path class="st5" d="M410.9,492.2c-3.4,0-3.4,4.6,0,4.6C414.3,496.8,414.3,492.2,410.9,492.2z"></path>
				<path class="st5" d="M388.6,488c-3.4,0-3.4,4.6,0,4.6C392,492.6,392,488,388.6,488z"></path>
				<path class="st5" d="M361.4,531.5c-3.4,0-3.4,4.6,0,4.6C364.8,536.1,364.8,531.5,361.4,531.5z"></path>
			</g>
			<g>
				<g>
					<g>
						<path class="st6" d="M221.7,497.7c-34.6,0-62.7-24.2-62.7-54s28.1-54,62.7-54s62.7,24.2,62.7,54S256.3,497.7,221.7,497.7z         M221.7,391.7c-33.2,0-60.3,23.3-60.3,51.9c0,28.6,27,51.9,60.3,51.9s60.3-23.3,60.3-51.9C282,415,254.9,391.7,221.7,391.7z"></path>
						<path class="st6" d="M221.7,498.7c-35.2,0-63.9-24.7-63.9-55.1c0-30.4,28.7-55.1,63.9-55.1s63.9,24.7,63.9,55.1        C285.6,474,256.9,498.7,221.7,498.7z M160.2,443.7c0,29.2,27.6,53,61.5,53s61.5-23.8,61.5-53c0,29.2-27.6,53-61.5,53        S160.2,472.9,160.2,443.7z M221.7,392.8c-32.6,0-59,22.8-59,50.9c0,28.1,26.5,50.9,59,50.9s59-22.8,59-50.9        C280.7,415.6,254.3,392.8,221.7,392.8z"></path>
					</g>
				</g>
				<g>
					<g>
						<path class="st6" d="M221.7,484.6c-26.2,0-47.5-18.4-47.5-41c0-22.6,21.3-41,47.5-41s47.5,18.4,47.5,41        C269.2,466.3,247.9,484.6,221.7,484.6z M221.7,404.8c-24.9,0-45.1,17.4-45.1,38.9c0,21.4,20.2,38.9,45.1,38.9        s45.1-17.4,45.1-38.9C266.8,422.2,246.6,404.8,221.7,404.8z"></path>
						<path class="st6" d="M221.7,485.7c-26.9,0-48.7-18.8-48.7-42c0-23.2,21.9-42,48.7-42s48.7,18.8,48.7,42        C270.4,466.8,248.6,485.7,221.7,485.7z M175.4,443.7c0,22,20.8,39.9,46.3,39.9s46.3-17.9,46.3-39.9c0,22-20.8,39.9-46.3,39.9        S175.4,465.7,175.4,443.7z M221.7,405.8c-24.2,0-43.9,17-43.9,37.8c0,20.9,19.7,37.8,43.9,37.8s43.9-17,43.9-37.8        C265.6,422.8,245.9,405.8,221.7,405.8z"></path>
					</g>
				</g>
				<g>
					<g>
						<path class="st6" d="M221.7,470.1c-16.9,0-30.7-11.9-30.7-26.5c0-14.6,13.8-26.5,30.7-26.5s30.7,11.9,30.7,26.5        C252.4,458.3,238.6,470.1,221.7,470.1z M221.7,419.3c-15.6,0-28.3,10.9-28.3,24.4c0,13.4,12.7,24.4,28.3,24.4        s28.3-10.9,28.3-24.4C250,430.2,237.3,419.3,221.7,419.3z"></path>
						<path class="st6" d="M221.7,471.2c-17.6,0-31.9-12.3-31.9-27.5c0-15.2,14.3-27.5,31.9-27.5s31.9,12.3,31.9,27.5        C253.6,458.8,239.3,471.2,221.7,471.2z M192.2,443.7c0,14,13.2,25.4,29.5,25.4s29.5-11.4,29.5-25.4c0,14-13.2,25.4-29.5,25.4        S192.2,457.7,192.2,443.7z M221.7,420.3c-14.9,0-27.1,10.5-27.1,23.3c0,12.9,12.1,23.3,27.1,23.3s27.1-10.5,27.1-23.3        C248.8,430.8,236.6,420.3,221.7,420.3z"></path>
					</g>
				</g>
				<g>
					<g>
						<path class="st6" d="M221.7,454.4c-6.9,0-12.5-4.8-12.5-10.7c0-5.9,5.6-10.7,12.5-10.7c6.9,0,12.5,4.8,12.5,10.7        C234.2,449.6,228.6,454.4,221.7,454.4z M221.7,435c-5.5,0-10,3.9-10,8.7c0,4.8,4.5,8.7,10,8.7s10-3.9,10-8.7        C231.7,438.9,227.2,435,221.7,435z"></path>
						<path class="st6" d="M221.7,455.4c-7.5,0-13.7-5.3-13.7-11.8c0-6.5,6.1-11.8,13.7-11.8s13.7,5.3,13.7,11.8        C235.4,450.2,229.2,455.4,221.7,455.4z M210.4,443.7c0,5.3,5,9.7,11.3,9.7s11.3-4.4,11.3-9.7c0,5.3-5,9.7-11.3,9.7        S210.4,449,210.4,443.7z M221.7,436c-4.9,0-8.8,3.4-8.8,7.6c0,4.2,4,7.6,8.8,7.6c4.9,0,8.8-3.4,8.8-7.6        C230.5,439.5,226.6,436,221.7,436z"></path>
					</g>
				</g>
				<path class="st4" d="M202.5,498.4c-0.7-1.2-2.2-1.4-3.6-1c-11,3.3-23.6,2.4-33.7-2.4c-3-1.4-6,2.4-3,3.8      c12,5.7,26.2,6.6,39.1,2.7C202.7,501.1,203.1,499.4,202.5,498.4z"></path>
				<path class="st4" d="M233.6,540.1c-5.5,0.1-10.9,0.2-16.4,0.3l2.8-45.8c0.2-3-5.2-2.9-5.3,0l-2.9,48c-0.1,0.9,0.4,1.4,1,1.8      c0.5,0.4,1.2,0.7,1.9,0.7c6.3-0.1,12.6-0.2,18.9-0.3c1.4,0,2.7-1,2.7-2.3C236.2,541.2,235,540.1,233.6,540.1z"></path>
				<path class="st4" d="M242.6,556.7c-11.3,7-26.1,7.2-37.5,0.4c-2.8-1.7-5.5,2.3-2.7,4c12.9,7.7,30.3,7.5,42.9-0.4      C248.1,559,245.4,555,242.6,556.7z"></path>
				<path class="st4" d="M194.7,479.7c-9.5-1.5-19.1-0.6-28,2.7c-1.3,0.5-1.6,2.2-1,3.1c0.8,1.2,2.3,1.3,3.7,0.8      c7.5-2.8,15.9-3.6,23.9-2.3c1.4,0.2,2.9-0.3,3.3-1.6C197,481.4,196.2,479.9,194.7,479.7z"></path>
				<path class="st4" d="M234.6,498.4c0.7-1.2,2.2-1.4,3.6-1c11,3.3,23.6,2.4,33.7-2.4c3-1.4,6,2.4,3,3.8c-12,5.7-26.2,6.6-39.1,2.7      C234.5,501.1,234.1,499.4,234.6,498.4z"></path>
				<path class="st4" d="M242.4,479.7c9.5-1.5,19.1-0.6,28,2.7c1.3,0.5,1.6,2.2,1,3.1c-0.8,1.2-2.3,1.3-3.7,0.8      c-7.5-2.8-15.9-3.6-23.9-2.3c-1.4,0.2-2.9-0.3-3.3-1.6C240.2,481.4,241,479.9,242.4,479.7z"></path>
				<ellipse class="st1" cx="176" cy="541.5" rx="20.8" ry="17.9"></ellipse>
				<ellipse class="st1" cx="267.4" cy="541.5" rx="20.8" ry="17.9"></ellipse>
			</g>
		</g>
		<g class="st2">
			<g>
				<path class="st7" d="M226.9,843.3C132.9,751,225,660,225,660S318.9,749.6,226.9,843.3z"></path>
				<path class="st8" d="M251.6,743.1c0.8-1.1-1.3-2.1-2-1c-7.1,10.1-14.1,20.2-21.2,30.3c-0.3-15-0.5-29.9-0.8-44.9      c6.1-7.6,12.3-15.1,18.4-22.7c0.9-1.1-1.2-2.1-2-1c-5.5,6.7-10.9,13.5-16.4,20.2c-0.1-4.5-0.2-8.9-0.2-13.4      c-0.2-11.8-0.4-23.7-0.6-35.5c0-1.3-2.4-1.3-2.4,0c0.3,16.7,0.6,33.4,0.9,50.2l-16.9-25.1c-0.8-1.1-2.8-0.1-2,1l18.3,27.2      c0.2,0.3,0.4,0.4,0.7,0.5c0.1,3.1,0.1,6.1,0.2,9.2c0.2,11.6,0.4,23.1,0.6,34.7c-8.6-10.7-17.1-21.4-25.7-32c-0.9-1.1-2.9,0-2,1      c9.2,11.4,18.3,22.8,27.5,34.2c0.1,0.1,0.2,0.2,0.3,0.3c0.1,8.1,0.3,16.1,0.4,24.2c0.1,5.5,0.2,11,0.3,16.5      c-7.7-9.2-15.5-18.4-23.2-27.6c-0.9-1.1-2.9,0-2,1c8,9.6,16.1,19.2,24.1,28.7c0.2,0.2,0.4,0.3,0.6,0.4c0.1,0.2,0.3,0.4,0.6,0.5      c0.1,5.3,0.2,10.7,0.3,16c0,1.3,2.4,1.3,2.4,0c-0.1-5.9-0.2-11.7-0.3-17.6c6.8-10.2,13.6-20.5,20.4-30.7c0.8-1.1-1.3-2.1-2-1      c-6.1,9.2-12.3,18.5-18.4,27.7c-0.2-12.7-0.5-25.5-0.7-38.2c0,0,0.1,0,0.1-0.1C236.3,765.1,244,754.1,251.6,743.1z"></path>
			</g>
			<g>
				<path class="st7" d="M262.6,835.4c76.3-103.7,203.5-53.2,203.5-53.2S392.9,885.1,262.6,835.4z"></path>
				<path class="st8" d="M381.2,827.7c1.5,0.3,2-1.6,0.5-2c-13.2-3-26.5-6-39.7-9c16.6-4.4,33.2-8.9,49.8-13.3      c10.1,2.9,20.3,5.9,30.4,8.8c1.4,0.4,2-1.6,0.5-2c-9-2.6-18.1-5.3-27.1-7.9c5-1.3,9.9-2.6,14.9-4c13.1-3.5,26.2-7,39.4-10.5      c1.4-0.4,0.8-2.3-0.7-1.9c-18.5,5-37.1,9.9-55.6,14.9l23.2-21c1-0.9-0.7-2.3-1.7-1.4l-25.1,22.7c-0.2,0.2-0.3,0.5-0.3,0.7      c-3.4,0.9-6.8,1.8-10.2,2.7c-12.8,3.4-25.6,6.9-38.5,10.3c9.5-10.1,19-20.2,28.4-30.3c1-1-0.8-2.4-1.7-1.4      c-10.1,10.8-20.3,21.6-30.4,32.4c-0.1,0.1-0.2,0.2-0.2,0.3c-8.9,2.4-17.9,4.8-26.8,7.2c-6.1,1.6-12.2,3.3-18.3,4.9      c8.1-9,16.2-18,24.2-27c0.9-1-0.8-2.4-1.7-1.4c-8.4,9.3-16.8,18.7-25.2,28c-0.2,0.2-0.2,0.4-0.2,0.6c-0.2,0.2-0.3,0.4-0.4,0.6      c-5.9,1.6-11.8,3.2-17.8,4.7c-1.4,0.4-0.8,2.3,0.7,1.9c6.5-1.7,13-3.5,19.5-5.2c13.3,2.8,26.6,5.5,39.9,8.3c1.5,0.3,2-1.7,0.5-2      c-12-2.5-24-5-36-7.5c14.1-3.8,28.2-7.5,42.3-11.3c0,0,0.1,0,0.1,0C352.3,821.2,366.8,824.4,381.2,827.7z"></path>
			</g>
			<path class="st6" d="M445.6,716.2c-1.9,3.1-4.4,6.1-6.8,8.9c-2.5,3-5.2,5.8-8,8.5c-5.4,5.2-11.4,10-17.9,14.3     c-2.3,2.9-4.7,5.8-7.2,8.6c5.5-1.4,11.3-1.9,17-1.4c3.2,0.3,6.4,0.9,9.4,1.8c2.8,0.8,5.9,1.9,8,3.8c1.8,1.7,2.7,4.3,1.5,6.5     c-1,2-3.4,2.9-5.8,3.1c-2.9,0.3-5.9-0.3-8.8-0.8c-3.2-0.6-6.4-1.3-9.5-2.1c-5.6-1.6-11-3.8-16-6.3c-5.9,6-12.4,11.6-19.3,16.8     c5.2-0.4,10.5-0.2,15.5,0.8c3.1,0.6,6.2,1.5,9.1,2.7c2.6,1.1,5.2,2.4,6.8,4.5c1.4,2,1.5,4.4-0.3,6.3c-1.8,1.9-4.7,2.5-7.5,2.4     c-6-0.2-12.2-2.2-17.5-4.4c-4.7-2-8.9-4.6-12.7-7.7c-7.7,5.2-15.9,9.9-24.6,13.9c-0.1,0-0.1,0.1-0.2,0.1c5.1,0.1,10,1,14.8,2.5     c2.7,0.9,5.4,2,7.9,3.3c2.5,1.3,5.2,2.8,6.8,4.9c1.5,1.8,2.1,4.2,1,6.2c-1.1,2-3.5,2.8-6,2.7c-3-0.1-5.8-1.3-8.5-2.4     c-2.7-1.2-5.4-2.5-8-3.9c-5.3-3-10-6.5-14.3-10.4c-0.1,0-0.1-0.1-0.1-0.1c-9.4,3.9-19.2,7.1-29.3,9.6c4.9,0.8,9.7,2.4,13.9,4.7     c5.3,2.8,9.7,6.6,12.9,11.2c1.7,2.3,3,5.3,0.9,7.8c-2.2,2.6-5.9,1.4-8.7,0.3c-11.4-4.5-20.7-12.6-26-22.4     c-8.3,1.7-16.7,2.9-25.2,3.5c-1.5,0.1-1.9-1.9-0.4-2c8.1-0.6,16.2-1.7,24.1-3.3c-0.5-7,0.5-14,3.1-20.7c2.3-6,5.8-11.7,10.4-16.6     c1.9-2,4.9-4.3,8.2-3.6c3.1,0.7,4,3.4,3.6,5.9c-0.4,3.2-2.3,6.3-3.7,9.2c-1.6,3.2-3.3,6.3-5.2,9.4c-3.2,5.3-6.9,10.4-11,15.2     c3.1-0.7,6.2-1.5,9.3-2.4c7.7-2.2,15.1-4.8,22.3-7.9c-1-6.4-0.8-13,0.6-19.4c0.7-3,1.6-6,2.9-8.9c1.1-2.7,2.4-5.6,4.7-7.8     c1.9-1.8,4.6-2.9,7.4-2.1c2.6,0.8,4.3,3.2,4.6,5.5c0.4,3-1,6-2.2,8.8c-1.2,2.9-2.6,5.8-4.2,8.6c-2.4,4.4-5.3,8.7-8.4,12.8     c8.6-4,16.9-8.6,24.6-13.8c-0.4-0.5-0.2-1,0.3-1.3c-1.8-6.5-2.6-13.2-2.2-20c0.2-3.1,0.6-6.2,1.2-9.3c0.5-2.6,1-5.7,2.9-7.9     c1.6-1.9,4.4-3.2,7.1-2.4c2.4,0.7,3.6,2.8,3.9,4.9c0.4,2.6-0.3,5.3-0.8,7.8c-0.6,3-1.2,5.9-2,8.9c-1.4,5.4-3.3,10.6-5.5,15.8     c0.6-0.4,1.1-0.8,1.7-1.2c6.8-5.1,13.1-10.6,19-16.5c-0.5-0.5-0.3-1.2,0.3-1.5c-2.6-5.3-4.4-10.8-5.3-16.5     c-0.4-2.7-0.7-5.4-0.7-8.1c0-2.5-0.1-5.3,0.7-7.7c0.6-2,2.3-3.9,4.8-4.3c2.4-0.4,4.4,0.8,5.5,2.6c1.4,2.3,0.8,5.2,0.6,7.8     c-0.2,2.9-0.5,5.9-0.8,8.8c-0.4,5-0.9,10-1.3,15c2.5-2.7,4.9-5.5,7.1-8.4c0-0.3,0.1-0.6,0.4-0.8c0.2-0.1,0.3-0.2,0.4-0.3     c1.1-1.3,2.1-2.7,3.1-4.1c1.5-6.8,4.1-13.5,7.8-19.7c1.9-3.1,3.9-6,6.3-8.8c2.3-2.7,4.7-5.8,8.3-7.4c2.8-1.3,6.6-1.3,8.8,0.8     C448.1,709.8,447.2,713.5,445.6,716.2z"></path>
			<g>
				<path class="st8" d="M312.8,821.9c-7,5.2-16.1,6.3-24.9,7.3c-8.8,1.1-30.5,4.2-35.8,11.2c-1.2,1.6-3,0.8-2.1-1      c0.6-1.1,0.8-2.5,0.8-4.1c0-1.3-0.1-2.7-0.5-4.2c0-0.1,0-0.1,0-0.2c-1.8-8.4-7.8-19.1-10.6-24.1c-3.8-7-7.8-14.1-6.6-22      c0.5-3.5,2.1-7,5.1-9.5c2.9-2.4,6.8-3.4,10.6-4.3c4.2-1,8.5-2,11.1-5.3c2.7-3.5,3.1-8,3-12.1c-0.1-7.5-1.6-17.1,6.3-22.4      c5.9-3.9,13.7-2.4,20.5-2.6c3.9-0.1,7.8-0.7,10.8-3.1c3.4-2.6,5.3-6.4,6.4-10.1c1.2-4.2,1.6-8.5,2.7-12.7      c1.1-3.8,2.9-7.3,5.6-10.4c5.2-5.8,13.2-9.7,21.7-10.2c1.7-0.1,3.3-0.1,5,0.1c0,0,0,0,0.1,0c3.8,0.3,7.4,2,9.8,4.6c0,0,0,0,0,0      l0,0c1.1,1.1,2,2.3,2.8,3.5c4.2,6.4,4.9,14.3,2.1,21.2c-1.5,3.7-3.9,6.9-7,9.8c-3.4,3.2-7.4,5.8-10.7,9c-3,2.8-5.6,6.3-6.3,10.2      c-0.6,3.4,0.9,6.6,3,9.4c3.6,5,9.4,9.8,8.8,16.2c-0.7,8.6-10.9,12.8-18.2,16.9c-4,2.2-8.1,4.9-10,8.8c-1.7,3.6-0.4,7.3,1,10.9      c1.3,3.3,2.4,6.6,1.6,10C318.4,816.5,315.9,819.6,312.8,821.9z"></path>
				<path class="st7" d="M301.9,801.1c1.4-0.5,0.1-2.3-1.2-1.7c-11,4.3-22.1,8.6-33.1,12.9c7.2-11.6,14.3-23.3,21.5-34.9      c1.5-2.5,3.1-5,4.6-7.5l31.6-14.4c1.3-0.6,0.1-2.3-1.2-1.7c-9.5,4.3-19,8.7-28.5,13c8.3-13.5,16.6-27,24.9-40.4      c5.9-9.6,11.8-19.1,17.7-28.7c0.7-1.2-1.4-2.1-2.1-1c-10.5,17-21,34.1-31.4,51.1L292.7,767l-0.1-28.3c0-1.3-2.4-1.2-2.4,0.1      c0,10.6,0.1,21.2,0.1,31.7c0,0.1,0,0.1,0,0.2c-5.8,9.4-11.6,18.8-17.3,28.2c-2.6,4.3-5.2,8.5-7.9,12.8      c-0.7-10.4-1.4-20.9-2.1-31.3c-0.1-1.3-2.4-1.2-2.4,0.1c0.7,11.1,1.5,22.3,2.2,33.4c0,0.3,0.2,0.6,0.4,0.7      c-2.7,4.3-5.3,8.7-8,13c-0.7,1.2,1.4,2.1,2.1,1c2.7-4.4,5.5-8.9,8.2-13.3c0,0,0.1,0,0.1,0C277.8,810.5,289.8,805.8,301.9,801.1z      "></path>
			</g>
			<g>
				<path class="st7" d="M180.8,831.6c-76.3-103.7-203.5-53.2-203.5-53.2S50.5,881.3,180.8,831.6z"></path>
				<path class="st8" d="M62.2,823.8c-1.5,0.3-2-1.6-0.5-2c13.2-3,26.5-6,39.7-9c-16.6-4.4-33.2-8.9-49.8-13.3      c-10.1,2.9-20.3,5.9-30.4,8.8c-1.4,0.4-2-1.6-0.5-2c9-2.6,18.1-5.3,27.1-7.9c-5-1.3-9.9-2.6-14.9-4c-13.1-3.5-26.2-7-39.4-10.5      c-1.4-0.4-0.8-2.3,0.7-1.9c18.5,5,37.1,9.9,55.6,14.9l-23.2-21c-1-0.9,0.7-2.3,1.7-1.4l25.1,22.7c0.2,0.2,0.3,0.5,0.3,0.7      c3.4,0.9,6.8,1.8,10.2,2.7c12.8,3.4,25.6,6.9,38.5,10.3c-9.5-10.1-19-20.2-28.4-30.3c-1-1,0.8-2.4,1.7-1.4      c10.1,10.8,20.3,21.6,30.4,32.4c0.1,0.1,0.2,0.2,0.2,0.3c8.9,2.4,17.9,4.8,26.8,7.2c6.1,1.6,12.2,3.3,18.3,4.9      c-8.1-9-16.2-18-24.2-27c-0.9-1,0.8-2.4,1.7-1.4c8.4,9.3,16.8,18.7,25.2,28c0.2,0.2,0.2,0.4,0.2,0.6c0.2,0.2,0.3,0.4,0.4,0.6      c5.9,1.6,11.8,3.2,17.8,4.7c1.4,0.4,0.8,2.3-0.7,1.9c-6.5-1.7-13-3.5-19.5-5.2c-13.3,2.8-26.6,5.5-39.9,8.3      c-1.5,0.3-2-1.7-0.5-2c12-2.5,24-5,36-7.5c-14.1-3.8-28.2-7.5-42.3-11.3c0,0-0.1,0-0.1,0C91,817.3,76.6,820.6,62.2,823.8z"></path>
			</g>
			<path class="st6" d="M-2.2,712.3c1.9,3.1,4.4,6.1,6.8,8.9c2.5,3,5.2,5.8,8,8.5c5.4,5.2,11.4,10,17.9,14.3     c2.3,2.9,4.7,5.8,7.2,8.6c-5.5-1.4-11.3-1.9-17-1.4c-3.2,0.3-6.4,0.9-9.4,1.8c-2.8,0.8-5.9,1.9-8,3.8c-1.8,1.7-2.7,4.3-1.5,6.5     c1,2,3.4,2.9,5.8,3.1c2.9,0.3,5.9-0.3,8.8-0.8c3.2-0.6,6.4-1.3,9.5-2.1c5.6-1.6,11-3.8,16-6.3c5.9,6,12.4,11.6,19.3,16.8     c-5.2-0.4-10.5-0.2-15.5,0.8c-3.1,0.6-6.2,1.5-9.1,2.7c-2.6,1.1-5.2,2.4-6.8,4.5c-1.4,2-1.5,4.4,0.3,6.3c1.8,1.9,4.7,2.5,7.5,2.4     c6-0.2,12.2-2.2,17.5-4.4c4.7-2,8.9-4.6,12.7-7.7c7.7,5.2,15.9,9.9,24.6,13.9c0.1,0,0.1,0.1,0.2,0.1c-5.1,0.1-10,1-14.8,2.5     c-2.7,0.9-5.4,2-7.9,3.3c-2.5,1.3-5.2,2.8-6.8,4.9c-1.5,1.8-2.1,4.2-1,6.2c1.1,2,3.5,2.8,6,2.7c3-0.1,5.8-1.3,8.5-2.4     c2.7-1.2,5.4-2.5,8-3.9c5.3-3,10-6.5,14.3-10.4c0.1,0,0.1-0.1,0.1-0.1c9.4,3.9,19.2,7.1,29.3,9.6c-4.9,0.8-9.7,2.4-13.9,4.7     c-5.3,2.8-9.7,6.6-12.9,11.2c-1.7,2.3-3,5.3-0.9,7.8c2.2,2.6,5.9,1.4,8.7,0.3c11.4-4.5,20.7-12.6,26-22.4     c8.3,1.7,16.7,2.9,25.2,3.5c1.5,0.1,1.9-1.9,0.4-2c-8.1-0.6-16.2-1.7-24.1-3.3c0.5-7-0.5-14-3.1-20.7c-2.3-6-5.8-11.7-10.4-16.6     c-1.9-2-4.9-4.3-8.2-3.6c-3.1,0.7-4,3.4-3.6,5.9c0.4,3.2,2.3,6.3,3.7,9.2c1.6,3.2,3.3,6.3,5.2,9.4c3.2,5.3,6.9,10.4,11,15.2     c-3.1-0.7-6.2-1.5-9.3-2.4c-7.7-2.2-15.1-4.8-22.3-7.9c1-6.4,0.8-13-0.6-19.4c-0.7-3-1.6-6-2.9-8.9c-1.1-2.7-2.4-5.6-4.7-7.8     c-1.9-1.8-4.6-2.9-7.4-2.1c-2.6,0.8-4.3,3.2-4.6,5.5c-0.4,3,1,6,2.2,8.8c1.2,2.9,2.6,5.8,4.2,8.6c2.4,4.4,5.3,8.7,8.4,12.8     c-8.6-4-16.9-8.6-24.6-13.8c0.4-0.5,0.2-1-0.3-1.3c1.8-6.5,2.6-13.2,2.2-20c-0.2-3.1-0.6-6.2-1.2-9.3c-0.5-2.6-1-5.7-2.9-7.9     c-1.6-1.9-4.4-3.2-7.1-2.4c-2.4,0.7-3.6,2.8-3.9,4.9c-0.4,2.6,0.3,5.3,0.8,7.8c0.6,3,1.2,5.9,2,8.9c1.4,5.4,3.3,10.6,5.5,15.8     c-0.6-0.4-1.1-0.8-1.7-1.2c-6.8-5.1-13.1-10.6-19-16.5c0.5-0.5,0.3-1.2-0.3-1.5c2.6-5.3,4.4-10.8,5.3-16.5     c0.4-2.7,0.7-5.4,0.7-8.1c0-2.5,0.1-5.3-0.7-7.7c-0.6-2-2.3-3.9-4.8-4.3c-2.4-0.4-4.4,0.8-5.5,2.6c-1.4,2.3-0.8,5.2-0.6,7.8     c0.2,2.9,0.5,5.9,0.8,8.8c0.4,5,0.9,10,1.3,15c-2.5-2.7-4.9-5.5-7.1-8.4c0-0.3-0.1-0.6-0.4-0.8c-0.2-0.1-0.3-0.2-0.4-0.3     c-1.1-1.3-2.1-2.7-3.1-4.1c-1.5-6.8-4.1-13.5-7.8-19.7c-1.9-3.1-3.9-6-6.3-8.8c-2.3-2.7-4.7-5.8-8.3-7.4     c-2.8-1.3-6.6-1.3-8.8,0.8C-4.7,706-3.8,709.6-2.2,712.3z"></path>
			<g>
				<path class="st8" d="M130.6,818.1c7,5.2,16.1,6.3,24.9,7.3c8.8,1.1,30.5,4.2,35.8,11.2c1.2,1.6,3,0.8,2.1-1      c-0.6-1.1-0.8-2.5-0.8-4.1c0-1.3,0.1-2.7,0.5-4.2c0-0.1,0-0.1,0-0.2c1.8-8.4,7.8-19.1,10.6-24.1c3.8-7,7.8-14.1,6.6-22      c-0.5-3.5-2.1-7-5.1-9.5c-2.9-2.4-6.8-3.4-10.6-4.3c-4.2-1-8.5-2-11.1-5.3c-2.7-3.5-3.1-8-3-12.1c0.1-7.5,1.6-17.1-6.3-22.4      c-5.9-3.9-13.7-2.4-20.5-2.6c-3.9-0.1-7.8-0.7-10.8-3.1c-3.4-2.6-5.3-6.4-6.4-10.1c-1.2-4.2-1.6-8.5-2.7-12.7      c-1.1-3.8-2.9-7.3-5.6-10.4c-5.2-5.8-13.2-9.7-21.7-10.2c-1.7-0.1-3.3-0.1-5,0.1c0,0,0,0-0.1,0c-3.8,0.3-7.4,2-9.8,4.6      c0,0,0,0,0,0l0,0c-1.1,1.1-2,2.3-2.8,3.5c-4.2,6.4-4.9,14.3-2.1,21.2c1.5,3.7,3.9,6.9,7,9.8c3.4,3.2,7.4,5.8,10.7,9      c3,2.8,5.6,6.3,6.3,10.2c0.6,3.4-0.9,6.6-3,9.4c-3.6,5-9.4,9.8-8.8,16.2c0.7,8.6,10.9,12.8,18.2,16.9c4,2.2,8.1,4.9,10,8.8      c1.7,3.6,0.4,7.3-1,10.9c-1.3,3.3-2.4,6.6-1.6,10C125,812.7,127.5,815.8,130.6,818.1z"></path>
				<path class="st7" d="M141.5,797.2c-1.4-0.5-0.1-2.3,1.2-1.7c11,4.3,22.1,8.6,33.1,12.9c-7.2-11.6-14.3-23.3-21.5-34.9      c-1.5-2.5-3.1-5-4.6-7.5l-31.6-14.4c-1.3-0.6-0.1-2.3,1.2-1.7c9.5,4.3,19,8.7,28.5,13c-8.3-13.5-16.6-27-24.9-40.4      c-5.9-9.6-11.8-19.1-17.7-28.7c-0.7-1.2,1.4-2.1,2.1-1c10.5,17,21,34.1,31.4,51.1l11.8,19.2l0.1-28.3c0-1.3,2.4-1.2,2.4,0.1      c0,10.6-0.1,21.2-0.1,31.7c0,0.1,0,0.1,0,0.2c5.8,9.4,11.6,18.8,17.3,28.2c2.6,4.3,5.2,8.5,7.9,12.8c0.7-10.4,1.4-20.9,2.1-31.3      c0.1-1.3,2.4-1.2,2.4,0.1c-0.7,11.1-1.5,22.3-2.2,33.4c0,0.3-0.2,0.6-0.4,0.7c2.7,4.3,5.3,8.7,8,13c0.7,1.2-1.4,2.1-2.1,1      c-2.7-4.4-5.5-8.9-8.2-13.3c0,0-0.1,0-0.1,0C165.6,806.6,153.6,801.9,141.5,797.2z"></path>
			</g>
		</g>
	</g>
</g>
</svg>