<?xml version="1.0" encoding="utf-8"?>
<!-- Generator: Adobe Illustrator 26.1.0, SVG Export Plug-In . SVG Version: 6.00 Build 0)  -->
<svg version="1.1" id="Calque_1" xmlns="http://www.w3.org/2000/svg" xmlns:xlink="http://www.w3.org/1999/xlink" x="0px" y="0px"
	 viewBox="0 0 97.1 142.8" style="enable-background:new 0 0 97.1 142.8;" xml:space="preserve">
<style type="text/css">
	.st0{fill:#C69B54;}
	.st1{fill:#828964;}
	.st2{fill:#64694F;}
	.st3{fill:#9FAD79;}
	.st4{fill:#8E996D;}
	.st5{fill:#FFFFFF;}
	.st6{fill:#F2C066;}
</style>
<g>
	<g>
		<path class="st0" d="M44.3,24.6C44.1,24.5,44.7,24.8,44.3,24.6c-0.1,0,0.4,0.4,0.2,0.2c-0.2-0.2,0.2,0.3,0.1,0.1
			c0-0.1-0.1-0.2-0.1-0.2S44.5,24.6,44.3,24.6c0-0.2,0.2,0.1,0.2,0.1c0-0.1-0.1-0.3-0.1-0.3c-0.1-0.2-0.1-0.5-0.2-0.7
			c-0.1-0.3-0.1-0.6-0.2-0.9c0-0.1-0.1-0.4,0-0.1c0,0.3,0,0,0-0.1c0-0.2,0-0.4-0.1-0.6c-0.1-0.8-0.1-1.5-0.1-2.3s0-1.7,0.1-2.5
			c0-0.5,0.1-0.9,0.1-1.4c0-0.2,0.1-0.4,0.1-0.7c0-0.2,0,0.3,0,0.1v-0.1c0-0.1,0-0.3,0.1-0.4c0.3-1.8,0.7-3.7,1.3-5.4
			c0.1-0.2,0.2-0.4,0.2-0.6c0-0.1,0.1-0.2,0.1-0.3c-0.1,0.3,0,0.1,0-0.1c0.2-0.4,0.4-0.8,0.6-1.2S46.8,6.4,47,6
			c0.1-0.2,0.2-0.3,0.3-0.5c0.1-0.1,0.3-0.4,0,0c0.1-0.1,0.1-0.2,0.2-0.2C47.8,5,48,4.7,48.3,4.4c0.1-0.1,0.3-0.2,0.4-0.4
			c0.2-0.1,0.2-0.1,0,0c0.1-0.1,0.2-0.1,0.3-0.2c0.3-0.2,0.6-0.4,1-0.6c0.1,0,0.2-0.1,0.2-0.1c-0.4,0.2-0.1,0,0,0
			C50.4,3,50.6,3,50.8,2.9c0.2,0,0.4-0.1,0.5-0.1c0,0,0.4-0.1,0.2,0c-0.2,0,0.1,0,0.2,0c0.4,0,0.8,0,1.2,0c0.1,0,0.2,0,0.3,0
			c-0.4,0,0,0,0.1,0c0.2,0,0.5,0.1,0.7,0.1c0.5,0.1,1,0.3,1.5,0.5c0.1,0,0.1,0.1,0.2,0.1c0,0-0.3-0.1,0,0c0.1,0.1,0.2,0.1,0.3,0.2
			c0.3,0.1,0.5,0.3,0.8,0.4c0.3,0.2,0.6,0.3,0.9,0.5c0.2,0.1,0.3,0.2,0.5,0.3s0.3,0.2,0.4,0.3c1.2,0.9,1.9,1.9,2.6,3.1
			c0.2,0.3,0.3,0.6,0.4,0.8c0,0.1,0.1,0.2,0.1,0.2c-0.1-0.2,0,0,0,0.1c0.1,0.2,0.1,0.4,0.2,0.6c0.2,0.7,0.4,1.4,0.6,2
			c0.2,0.8,0.3,1.4,0.3,2c0.1,0.7,0.1,1.5,0.2,2.2c0.1,3.1-0.1,6.2-0.2,9.3c0,0.7,0,1.4,0,2.2c0,1.7,2.7,1.7,2.7,0
			c0-3.2,0.3-6.4,0.3-9.6s-0.2-6.5-1.4-9.5c-1.2-3.1-3.4-5.5-6.3-7c-1.9-1-4.2-1.8-6.4-1.5c-3.9,0.4-6.6,3.4-8.1,6.8
			c-1.6,3.7-2.3,7.8-2.5,11.8c0,1.6,0,3.3,0.3,4.9c0.2,1.1,0.5,2.3,1.3,3c0.2,0.2,0.6,0.4,0.9,0.5C45.3,27.6,46,25,44.3,24.6
			L44.3,24.6z"/>
	</g>
	<polygon class="st1" points="5.3,27.4 24.1,16.8 93.1,31.3 86.5,43.5 58.7,51.2 10.2,36.4 	"/>
	<polygon class="st2" points="24.1,16.8 24,38.4 5.3,27.4 	"/>
	<path class="st3" d="M79.7,40l13.4-8.7c0,0,5.7,86.7,3.5,92.4c-2.2,5.7-12.3,4.4-14.2,5.5c-1.9,1.1-4.4,0.5-4.4,0.5L79.7,40z"/>
	<path class="st4" d="M75.4,40.5l6.3-1.6l0.8,90.3l-7.1,12.5c0,0-25.4-33-25.4-34.4S75.4,40.5,75.4,40.5z"/>
	<path class="st3" d="M0,126.4c0,0,5.3-75.6,5.3-98.9l70.1,13.1c0,0-2.2,96.3,0,101.2C77.6,146.6,16.4,133.1,0,126.4z"/>
	<g>
		<path class="st5" d="M47,85.6l-1.8-0.3c0-0.3,0.6-3,5.6-9.1c3.8-4.6,5.7-27.8,6.2-39.1l1.8,0.3c-0.1,1.4-1.5,33.7-6.7,39.9
			C47.5,83.1,47,85.6,47,85.6z"/>
	</g>
	<g>
		<polygon class="st5" points="33.4,110 36.2,91.2 45.8,85.3 56.5,94.8 55.3,114 		"/>
		<path class="st5" d="M45.7,85.9L56,95l-1.2,18.4l-20.9-3.8l2.7-18.1L45.7,85.9 M45.8,84.7l-10.1,6.2l-2.9,19.5l23,4.2l1.3-20
			L45.8,84.7L45.8,84.7z"/>
	</g>
	<g>
		<path class="st6" d="M27.2,34.8C27,34.7,27.6,35,27.2,34.8c-0.1,0,0.4,0.4,0.2,0.2c-0.2-0.2,0.2,0.3,0.1,0.1
			c0-0.1-0.1-0.2-0.1-0.2S27.4,34.8,27.2,34.8c0-0.2,0.2,0.1,0.2,0.1c0-0.1-0.1-0.3-0.1-0.3c-0.1-0.2-0.1-0.5-0.2-0.7
			c-0.2-0.5-0.2-0.7-0.3-1c0-0.1-0.1-0.4,0-0.1c0,0.3,0,0,0-0.1c0-0.2,0-0.4-0.1-0.6c-0.1-0.8-0.1-1.5-0.1-2.3s0-1.7,0.1-2.5
			c0-0.5,0.1-0.9,0.1-1.4c0-0.2,0.1-0.4,0.1-0.7c0-0.2,0,0.3,0,0.1v-0.1c0-0.1,0-0.3,0.1-0.4c0.3-1.8,0.7-3.7,1.3-5.4
			c0.1-0.2,0.2-0.4,0.2-0.6c0-0.1,0.1-0.2,0.1-0.3c-0.1,0.3,0,0.1,0-0.1c0.2-0.4,0.4-0.8,0.6-1.2s0.4-0.7,0.6-1.1
			c0.1-0.2,0.2-0.3,0.3-0.5c0.1-0.1,0.3-0.4,0,0c0.1-0.1,0.1-0.2,0.2-0.2c0.3-0.3,0.5-0.6,0.8-0.9c0.1-0.1,0.3-0.2,0.4-0.4
			c0.2-0.1,0.2-0.1,0,0c0.1-0.1,0.2-0.1,0.3-0.2c0.3-0.2,0.6-0.4,1-0.6c0.1,0,0.2-0.1,0.2-0.1c-0.4,0.2-0.1,0,0,0
			c0.2-0.1,0.4-0.1,0.6-0.2c0.2,0,0.4-0.1,0.5-0.1c0,0,0.4-0.1,0.2,0c-0.2,0,0.1,0,0.2,0c0.4,0,0.8,0,1.2,0c0.1,0,0.2,0,0.3,0
			c-0.4,0,0,0,0.1,0c0.2,0,0.5,0.1,0.7,0.1c0.5,0.1,1,0.3,1.5,0.5c0.1,0,0.1,0.1,0.2,0.1c0,0-0.3-0.1,0,0c0.1,0.1,0.2,0.1,0.3,0.2
			c0.3,0.1,0.5,0.3,0.8,0.4c0.3,0.2,0.6,0.3,0.9,0.5c0.2,0.1,0.3,0.2,0.5,0.3s0.3,0.2,0.4,0.3c1.2,0.9,1.9,1.9,2.6,3.1
			c0.2,0.3,0.3,0.6,0.4,0.8c0,0.1,0.1,0.2,0.1,0.2c-0.1-0.2,0,0,0,0.1c0.1,0.2,0.1,0.4,0.2,0.6c0.2,0.7,0.4,1.4,0.6,2
			c0.2,0.8,0.3,1.4,0.3,2c0.1,0.7,0.1,1.5,0.2,2.2c0.1,3.1-0.1,6.2-0.2,9.3c0,0.7,0,1.4,0,2.2c0,1.7,2.7,1.7,2.7,0
			c0-3.2,0.3-6.4,0.3-9.6c0-3.2-0.2-6.5-1.4-9.5c-1.2-3.1-3.4-5.5-6.3-7c-1.9-1-4.2-1.8-6.4-1.5c-3.9,0.4-6.6,3.4-8.1,6.8
			c-1.6,3.7-2.3,7.8-2.5,11.8c0,1.6,0,3.3,0.3,4.9c0.2,1.1,0.5,2.3,1.3,3c0.2,0.2,0.6,0.4,0.9,0.5C28.1,37.9,28.8,35.3,27.2,34.8
			L27.2,34.8z"/>
	</g>
</g>
</svg>
