<?xml version="1.0" encoding="UTF-8"?>
<!-- Generator: Adobe Illustrator 24.0.0, SVG Export Plug-In . SVG Version: 6.00 Build 0)  -->
<svg xmlns="http://www.w3.org/2000/svg" xmlns:xlink="http://www.w3.org/1999/xlink" version="1.1" id="Calque_1" x="0px" y="0px" viewBox="0 0 1920 2447" style="enable-background:new 0 0 1920 2447;" xml:space="preserve">
<style type="text/css">
	.st0{opacity:0.2;}
	.st1{fill:#86A053;}
	.st2{opacity:0.2;fill:#86A053;}
</style>
<g class="st0">
	<path class="st1" d="M1812.2,1733.8c13.3-9.5,27.7-9.3,35.2-9.2c7.5,0.1,13.8,1.3,18.6,2.6c-3.5-6.1-6.6-12.4-9.3-18.9   c-6.6-0.4-15.9-0.7-27.1-0.3c-19.4,0.7-25.3,2.9-35.1,1.9c-9.8-1-23.7-5.1-39.8-19.8c7.8,2.9,19.4,6.1,33.7,6.1   c11.6-0.1,16.7-2.3,25.5-2.7c10-0.4,24.2,1.7,42.1,13.1c-2-4.9-3.9-9.8-5.7-14.7c-1.7-4.7-3.5-9.4-5.4-14.1   c-4.9-2.2-12.3-4.9-21.4-6.3c-22.5-3.5-33.1,4.6-49,0.2c-7.2-2-17.6-7.3-28.2-22.7c15.6,7.6,28.4,10,37.1,10.9   c16.3,1.7,26.1-1.7,41.2,3.5c7.8,2.7,14,6.6,18.4,10c-2.1-4.7-4.5-9.4-7.2-13.8c-2.4-3.8-5.1-7.4-7.9-10.8   c-5.8-2-13.7-4.5-23.2-6.7c-21.7-4.9-24-1.7-37.1-6.1c-6.9-2.3-25.3-9.7-37.9-27.9c-3.5-5-5.6-9.6-6.9-12.7   c3.3,2.9,8.6,7,15.7,10.9c14.9,8.2,28.1,10.1,32.7,10.9c11.9,2.1,29.2,8.5,52.9,27.1c-8.3-9-18-16.9-27.4-24.7l-27.6-22.6   c-12.8-6.8-21-14.4-26.2-20.2c-10-11.1-12.3-19.4-24.2-32.2c-8.2-8.8-16.2-14.7-21.5-18.2c7.8,1.1,29.5,5.3,49.2,23.6   c18.7,17.4,25,37.7,27.2,46.7l25,20.5c9,7.4,18.2,14.9,26.4,23.5c-7.2-16.7-11.5-30.8-14-40.7c-3.3-12.8-3.4-16.8-7.1-27.6   c-7.4-21.9-16.8-35.9-16.1-35.1c6.2,7.4,14.5,18.1,22.8,32.1c2.3,3.8,7.1,11.9,10.7,19.9c4.4,10,10.7,28.9,8.5,56.7   c3.2,3.8,6.2,7.7,8.8,11.9c1.4,2.2,2.6,4.4,3.8,6.7c-0.6-3.8-0.9-8.1-0.7-12.8c0.8-16,7.6-23.7,12.2-39.5   c2.4-8.3,4.9-21.2,3.7-38.4c10.4,15.6,11.4,27.2,10.5,34.7c-1.8,16.4-13.3,23.2-18.5,45.3c-2.1,8.8-2.3,16.5-2.1,21.9   c2.1,5,4,10.1,5.8,15.1c1.9,5.2,3.9,10.5,6,15.6c0.4,1,0.9,2,1.3,3c-3-17-0.6-29,2.6-37.2c3.1-8.1,6.9-12.3,10.7-23.2   c4.6-13.4,5.3-25.6,5.1-33.8c8.7,20,8.2,34.5,5.9,44.1c-2.2,9.6-6.2,14.5-13.1,32.6c-3.7,9.7-6.3,18.1-8,24.4   c3,6.2,6.4,12.2,10.2,18c0.2-6.5,1.3-14.6,4.5-23.5c8.1-22.4,24.6-34.5,31.6-39c-5.1,5.2-11.2,13-14.6,23.9   c-2.3,7.4-1.8,11.2-4.1,18c-2.2,6.3-6.6,14.3-16.2,22.4c15.4,23.5,36.1,43.4,60.1,57.9l-1.5,2.6c-27.3-16.3-50.3-39.7-66.3-67.2   c-4.3,2.5-10.5,5.4-18.3,6.9c-12.4,2.4-14.9-1.5-25.4,1.1c-14.7,3.5-27.1,15.2-27.1,15.2   C1801.6,1742.2,1808.4,1736.5,1812.2,1733.8z"></path>
</g>
<path class="st2" d="M0.7,259.9c-1.1,1.7-2.5,3.3-3.9,4.7c4.4-2,9.2-3.7,14.4-4.9c5.9-1.4,19.4-3.4,35.3,1.2  c1.8-3.2,6.4-8.9,11-11.5c5-2.8,9-1.4,10,1.5c1,2.9-0.9,7.4-6,10c-2.7,1.3-6,1.9-8.9,2.1c2.4,0.9,4.9,2,7.3,3.3  c6.1,3.2,11.2,6.9,15.4,10.5c2.7-2,8.8-5.1,14-5.2c5.5-0.1,8.7,3.2,8.7,6.3c0,3.1-3.3,6.4-8.7,6.1c-2.7-0.1-5.7-1.1-8.3-2.3  c1.7,1.7,3.3,3.3,4.6,4.7c6.6,6.8,10.7,12.5,14.2,17.9c2.9-1.4,9.4-3.3,14.5-2.4c5.4,1,8.2,4.9,7.7,7.9c-0.4,3.1-4.1,5.6-9.4,4.4  c-3.4-0.8-7.1-3.1-9.8-5.2c1.6,2.5,3.2,4.9,5,7.4c1.5,2,5.4,7.3,11.5,13.3c2.5-2.1,8.6-5.8,13.9-6.2c5.5-0.4,8.8,2.6,8.9,5.8  c0.1,3.1-3,6.6-8.5,6.7c-3.5,0.1-7.4-1.2-10.5-2.6c6.1,5.5,13.7,11.3,22.6,15.8c1.8-3,6.8-8.7,11.6-11.1c5.1-2.5,9-0.8,9.9,2.1  c0.9,2.9-1.2,7.4-6.4,9.6c-3.3,1.4-7.3,1.7-10.6,1.5c3.6,1.5,7.4,2.8,11.3,3.7c4.1,1,8.2,1.6,12.3,1.9c1-3.4,4.5-10.8,8.8-14.9  c4.3-4.1,8.5-3.8,10-1.3c1.5,2.5,0.5,7.5-4,11.4c-2.8,2.4-6.7,4.1-9.9,5c7,0,14-0.9,20.9-2.7c0.2-3.7,1.8-11.8,4.9-17  c3.2-5.5,7.2-6.7,9.3-4.8c2,1.9,2.2,7-1.1,12.3c-2,3.1-5,5.9-7.7,7.9c5.7-2,11.3-4.6,16.7-7.9c2-3.4,5.7-8.5,9.7-11.1  c4.8-3.2,8.9-2.1,10.1,0.7c1.2,2.8-0.5,7.5-5.4,10.4c-4.5,2.7-10.9,3.3-14.1,3c-5,3-10.3,5.5-15.6,7.4c2.8-0.1,6,0.1,8.7,1  c5.2,1.9,7.5,6.2,6.7,9.2c-0.8,3-4.7,4.9-9.8,2.7c-5.2-2.2-10.7-8.2-12.4-10.8c-6.2,1.6-12.6,2.5-18.9,2.6c2.6,0.9,5.3,2.1,7.5,3.9  c4.6,3.7,5.7,8.6,4.3,11.2c-1.4,2.6-5.6,3-10.1-0.9c-4.3-3.8-8.1-11.1-9.2-14.4c-4.1-0.3-8.1-1-12.1-1.9c-3.3-0.8-6.5-1.8-9.5-3  c2.2,1.7,4.4,3.7,6.1,6.1c3.6,5.1,3.6,10.2,1.6,12.2c-2,2-6.1,1-9.5-4.2c-3.5-5.3-5.4-14-5.6-17.4c-8-4.1-14.9-9.2-20.7-14.2  c1.7,2.4,3.3,5.2,4.3,8.1c2.1,6.2,0.9,11.1-1.5,12.2c-2.4,1.2-6-1.3-8-7.6c-1.9-6.3-1.6-15.2-1-18.5c-5.9-6-9.8-11.1-11.3-13.2  c-1.1-1.6-2.2-3.2-3.2-4.7c1.1,2.6,2,5.5,2.5,8.3c1,6.6-1.1,11-3.6,11.6c-2.5,0.5-5.7-2.8-6.5-9.5c-0.8-6.8,1.1-15.5,2.3-18.5  c-3.4-5.1-7.3-10.5-13.5-16.8c-1.9-2-4.1-4.3-6.8-6.7c2.2,3,4.6,7.1,5.8,11.1c1.9,6.3,0.4,11.1-2,12.1c-2.4,1-6-1.7-7.6-8.1  c-1.7-6.5-1-15.4-0.2-18.7c-4-3.3-8.7-6.6-14.2-9.5c-3-1.6-6-2.8-8.9-3.9c2.9,1.6,6.3,4.1,8.7,7.1c3.8,4.8,4,10,2.1,12.1  c-1.9,2.1-6,1.4-9.6-3.6c-3.8-5.2-6.1-14-6.4-17.2c-15-4.1-27.7-2.2-33.3-0.9c-7.7,1.8-14.4,4.7-20.3,8.1c3.4-0.5,8-0.6,11.7,0.7  c5.2,1.9,7.5,6.2,6.7,9.2c-0.8,3-4.7,4.9-9.8,2.7c-5-2.1-10.2-7.6-12.1-10.5c-7.6,5-13.5,10.8-17.9,15.8c-0.5,0.5-1.2,0.5-1.7-0.1  c-0.2-0.3-0.3-0.6-0.3-1c0-0.4,0.1-0.8,0.4-1c4.6-5.4,11.1-11.6,19.4-16.9c0.2-3.7,1.8-11.9,4.9-17.2c3.2-5.5,7.2-6.7,9.3-4.8  C3.8,249.5,4,254.6,0.7,259.9z"></path>
<g class="st0">
	<g>
		<g>
			<g>
				<path class="st1" d="M1914.3,570.1c-0.2,0.1-0.4,0.1-0.6,0.2c-1.3,0.2-2.6-0.6-2.9-1.8c-8.7-43-30.7-106.3-86.1-163.7      c-28.3-29.3-62-53.7-100.1-72.3c-1.2-0.6-1.7-2-1-3.1c0.6-1.1,2.1-1.6,3.4-1c38.6,18.9,72.7,43.6,101.4,73.3      c56.2,58.2,78.5,122.4,87.3,166C1915.8,568.6,1915.3,569.6,1914.3,570.1z"></path>
			</g>
		</g>
		<g>
			<g>
				<path class="st1" d="M1717.2,316.6c18.1,6.5,36.5,23.9,39.5,29.4c-6.1,2.4-32.2,4.8-50.6-1c-16.6-5.2-23.4-15.9-20.6-23      C1688.3,314.9,1700.9,310.7,1717.2,316.6z"></path>
			</g>
		</g>
		<g>
			<g>
				<path class="st1" d="M1774.3,377.5c18.3,1.7,39.9,13.2,44.2,17.5c-4.9,3.6-28.1,12-46.5,11.1c-16.6-0.8-25.7-9-25.1-16.1      C1747.4,382.8,1757.8,376,1774.3,377.5z"></path>
			</g>
		</g>
		<g>
			<g>
				<path class="st1" d="M1801.3,336.1c6.3,16,4.4,39.1,2.1,44.5c-5.6-2.5-23.8-18.3-30.9-34.1c-6.4-14.2-2.4-25.4,4.8-28      C1784.5,315.9,1795.6,321.6,1801.3,336.1z"></path>
			</g>
		</g>
		<g>
			<g>
				<path class="st1" d="M1835.8,424.4c16,8.3,30.8,26.9,32.9,32.4c-6.1,1.5-31,0.5-47.4-7.1c-14.8-6.9-19.7-17.8-16-24.1      C1808.8,419.2,1821.3,416.9,1835.8,424.4z"></path>
			</g>
		</g>
		<g>
			<g>
				<path class="st1" d="M1867,392.2c0.7,17-8.6,38.4-12.6,43c-4.5-4-16.7-24.2-18.3-41.1c-1.4-15.3,6-24.9,13.8-25.3      C1857.6,368.3,1866.3,376.9,1867,392.2z"></path>
			</g>
		</g>
		<g>
			<g>
				<path class="st1" d="M1872,493c15.6,9.1,29.3,28.4,31.1,33.9c-6.1,1.2-31-0.9-46.9-9.4c-14.4-7.6-18.7-18.7-14.7-24.9      C1845.5,486.6,1858,484.8,1872,493z"></path>
			</g>
		</g>
		<g>
			<g>
				<path class="st1" d="M1916.4,468.8c-3.2,16.8-17.3,35.9-22.2,39.5c-3.5-4.8-10.8-26.9-8.4-43.8c2.1-15.2,11.6-23.1,19.3-22      C1912.8,443.6,1919.3,453.7,1916.4,468.8z"></path>
			</g>
		</g>
	</g>
</g>
<path class="st2" d="M-36.5,1275.2c5.4-2.6,14.4,1.6,19.6,13.3c2.9,6.5,4.4,14.7,4.9,21.7c4.2-17,9.1-33.9,15.1-50.5  c-5.8-5-15.5-16.1-19.6-27c-4.5-12.1-1-21.3,4.6-23.3c5.7-2,14.1,3.2,18,15.4c2,6.1,2.6,13.4,2.5,19.9c5.3-13.2,11.3-26,18.2-38.4  c-4.2-5.4-12.1-20-13.4-32.6c-1.3-12.8,4.3-20.9,10.3-21.4c6-0.5,12.9,6.6,13.6,19.4c0.4,7.2-1.1,15.3-3.1,22.1  c1.7-2.8,3.5-5.5,5.4-8.2c5.9-8.7,12.3-16.9,19.1-24.9c-2.7-6.5-6.5-22.3-4.6-34.7c2-12.7,9.5-19.1,15.4-18.1  c5.9,1.1,10.8,9.6,8.2,22.3c-1.1,5.2-3.3,10.7-5.9,15.6c8.6-9.3,17.6-18.4,26.5-27.2c2.2-6.9,7.8-18.5,15.1-25.7  c8.5-8.2,17.5-8.8,21.3-4.7c3.8,4,2.6,13-6.3,20.9c-8.6,7.6-22.7,12.6-29,13.8c-10.5,10.4-20.9,21-30.8,32.1  c6.7-3.5,15.4-6.9,23.4-7.7c12.8-1.3,20.9,4.3,21.4,10.3s-6.6,12.9-19.4,13.6c-11.8,0.7-26.3-4-33-7.3c-6.4,7.7-12.6,15.6-18.2,23.9  c-1.8,2.7-3.6,5.4-5.3,8.1c5.3-4.4,11.7-8.8,18.1-11.2c12-4.6,21.3-1.2,23.3,4.5s-3.1,14.1-15.3,18.1c-11.2,3.7-26.2,2.9-33.7,1.4  c-7.5,13.6-14,27.7-19.6,42.2c4.2-6.3,10.1-13.5,16.7-18.1c10.5-7.4,20.3-6.4,23.7-1.4c3.4,5,0.5,14.4-10.3,21.4  c-10.9,7-27.6,9.9-34.3,9.8c-5.6,15.9-10.3,32.2-14.4,48.4c3.4-6,7.8-12.4,13-16.9c9.6-8.5,19.5-8.6,23.4-4  c3.9,4.6,2.1,14.3-7.9,22.4c-9.6,7.7-24.9,12.4-32,13.4c-4.6,19.7-8.4,39.3-12.1,58.2c-0.2,1-1.2,1.7-2.2,1.5c0,0,0,0,0,0  c-1-0.2-1.7-1.2-1.5-2.2c3.7-19.2,7.6-39.2,12.3-59.3c-6.2-4-17.8-14.4-23.2-25.2C-44.3,1287.4-41.9,1277.8-36.5,1275.2z"></path>
<path class="st2" d="M65.4,1499.6c4.3-1.3,8.8-2.5,13.2-3.4c7.9,3.3,20.2,6.9,34.8,4.6c11.9-1.8,21-6.9,26.9-11.1  c-6-3.5-15.5-7.9-27.1-8.3c-16.4-0.5-28.5,7.2-34.9,12.3c-4.6,1-9.2,2.2-13.6,3.5c-6.4,2-12.8,4.4-19,7.2c16-17,34.5-31.8,54.9-43.6  c8.3,0,19.3-1.4,30.4-7.4c10.6-5.7,17.4-13.5,21.6-19.4c-6.8-1.3-17.2-2.2-28.3,1.3c-15.2,4.8-23.9,15.6-28.3,22.6  c-17.4,10.3-33.4,22.7-47.6,36.8c2.2-4.2,4.3-8.5,6.2-12.8c2.2-4.9,4.1-10,5.9-15.1c6.1-5.9,14-15.4,17.9-29  c3.2-11.5,2.4-21.9,1.1-29.1c-5.7,4-13.6,10.8-18.8,21.3c-7.5,15.2-5.2,29.9-3.1,37.6c-1.6,4.5-3.3,9-5.2,13.3  c-3.1,7.1-6.7,14.1-10.7,20.7c-11.7,12.6-22.1,26.3-31,41.1l7.8-28.4c6.3-5.7,15.1-15.7,19.2-30.3c3.2-11.5,2.4-21.9,1.1-29.1  c-5.7,4-13.6,10.8-18.8,21.3c-7,14.2-5.4,27.9-3.5,36l-10.7,39c-3.9,7.1-7.4,14.3-10.6,21.7c-0.5,1.2,0,2.6,1.1,3.1  c0.1,0,0.1,0.1,0.2,0.1c1.2,0.5,2.7-0.1,3.2-1.3c3.6-8.4,7.7-16.7,12.2-24.6c4.6-3.4,9.6-6.4,14.9-8.8c3.4-1.5,6.8-2.8,10.4-3.9  c7.8,3.3,20.4,7.1,35.2,4.8c11.9-1.8,21-6.9,26.9-11.1c-6-3.5-15.5-7.9-27.1-8.3c-15.9-0.5-27.7,6.6-34.2,11.7  c-4.2,1.2-8.2,2.6-12.2,4.4c-3.8,1.7-7.4,3.8-10.9,6c7.7-12.8,16.6-24.9,26.6-36.1C49.1,1505.4,57.1,1502.2,65.4,1499.6z"></path>
<path class="st2" d="M1908.8,1568.8c2.6,0.1,5.3,0.6,7.9,1.4c-5.7-3.8-11.4-8.2-17-13.5c-6.3-6-19.8-20.6-29-42.5  c-4.6,0-14-1.3-20.5-5c-6.9-3.9-9-9.7-7.1-12.9s7.9-4.1,14.7,0.1c3.6,2.2,7,5.7,9.6,9c-1.2-3.5-2.2-7.2-3.1-11  c-2.2-9.4-2.9-18-3.1-25.5c-4.2-1.8-12.4-6.9-16.9-12.9c-4.8-6.4-4.3-12.5-1.3-14.6c3-2.2,8.9-0.5,13.4,6.1  c2.2,3.3,3.9,7.5,4.9,11.4c0.2-3.2,0.4-6.2,0.6-8.8c0.9-12.6,3-21.4,5.1-29.3c-3.8-2.4-11.2-8.8-14.7-15.5c-3.7-7.1-2.3-13,1.1-14.7  c3.3-1.6,8.9,0.9,12.3,8.1c2.1,4.6,3.1,10.5,3.3,15.2c1-3.6,2-7.2,2.9-11.1c0.7-3.1,2.4-11.5,3-22.8c-4.2-1.4-12.9-6.2-17.9-12.1  c-5.1-6.1-5-12.2-2-14.6c2.9-2.3,8.9-1,13.7,5.3c3.1,4,5.2,9.6,6.5,14.2c0.2-11-0.7-24-4-37.6c-4.4-0.1-14.2-1.9-20.6-6  c-6.7-4.3-8.5-10.1-6.4-13.2c2.1-3.1,8.1-3.7,14.7,0.9c4.1,2.9,7.9,7.5,10.5,11.5c-1.6-5.3-3.6-10.6-6-16  c-2.5-5.5-5.5-10.8-8.7-15.9c-4.1,1.2-14.3,2.2-21.9,0c-7.6-2.3-10.9-7.4-9.8-10.9c1.1-3.6,6.8-5.8,14.3-3.2c4.8,1.7,9.7,5,13.3,8.1  c-5.9-8.3-12.8-16-20.4-22.8c-3.8,2.3-13,6-20.6,6.1c-8,0-12.6-3.9-12.5-7.6c0.1-3.7,4.8-7.5,12.8-7.2c4.7,0.2,10,1.8,14.2,3.6  c-6.8-5.4-14.1-10.1-21.9-14.2c-5,0.1-13.1-0.9-19-3.7c-7.2-3.5-9.6-9.1-7.9-12.4c1.7-3.3,7.7-4.6,14.7-0.8  c6.4,3.5,12.4,10.5,14.9,14.5c7.2,3.8,14.1,8.3,20.5,13.3c-2.5-3.2-5-7.1-6.4-11c-2.7-7.5-0.4-13.2,3.1-14.4c3.5-1.2,8.7,2.1,11,9.7  c2.3,7.7,1.3,18.3,0.1,22.2c6.9,6.2,13.1,13.1,18.7,20.6c-1.4-3.7-2.5-7.8-2.7-11.6c-0.4-8,3.4-12.8,7.1-12.9  c3.7-0.1,7.7,4.5,7.7,12.5c0,7.8-3.8,17.2-6.1,20.9c3.2,5,6,10.2,8.5,15.6c2.1,4.4,3.8,8.9,5.2,13.4c-0.3-3.8-0.2-7.9,0.6-11.4  c1.8-7.8,6.8-11.3,10.4-10.4c3.6,0.9,6.2,6.5,4,14.1c-2.2,7.8-8.9,16.1-11.9,18.7c2.9,12.3,3.9,24.1,3.9,34.3  c0.9-3.7,2.2-7.5,4.1-10.6c4.1-6.8,9.9-8.7,13.1-6.7c3.1,2,3.9,8.1-0.5,14.7c-4.5,6.7-13.2,12.5-17,14.1c-0.7,11.2-2.3,19.4-3,22.5  c-0.6,2.5-1.2,4.8-1.8,7.1c1.6-3.1,3.6-6.3,5.9-8.7c5.5-5.8,11.5-6.4,14.2-3.8c2.7,2.6,2.1,8.7-3.6,14.2  c-5.9,5.7-15.9,9.6-19.8,10.2c-2,7.5-3.9,15.9-4.7,27.7c-0.3,3.6-0.6,7.9-0.7,12.7c1-4.6,2.9-10.3,5.8-14.5c4.5-6.6,10.4-8.2,13.4-6  c3,2.2,3.5,8.3-1.3,14.6c-4.8,6.5-14,11.9-17.8,13.2c0.2,7,1,14.8,3,23.4c1.1,4.7,2.4,9.1,3.9,13.3c-0.9-4.6-1.4-10.4-0.5-15.2  c1.4-7.8,6.2-11.7,9.8-10.9c3.7,0.7,6.5,6.1,4.7,13.9c-1.8,8.1-8.3,17-11.2,19.5c8.9,20.6,21.6,34.2,27.6,40  c8.2,7.8,16.8,13.8,25.2,18.4c-3.4-3.6-7.4-9.1-9.3-14.4c-2.7-7.5-0.4-13.2,3.1-14.4c3.5-1.2,8.7,2.1,11,9.7  c2.2,7.4,1.3,17.4,0.2,21.6c11.3,5.5,22,8.5,30.5,10.1c0.9,0.2,1.5,1.1,1.4,2c-0.1,0.4-0.3,0.8-0.7,1.1c-0.4,0.3-0.8,0.4-1.3,0.3  c-9.1-1.7-20.7-5-32.9-11.1c-3.7,2.3-13,6.1-20.8,6.2c-8,0-12.6-3.9-12.5-7.6C1896,1572.2,1900.8,1568.4,1908.8,1568.8z"></path>
<path class="st2" d="M1851.2,1827.9c-2.1-4.1-3.9-8.2-5.6-12.5c1.9-8.3,3.3-21.1-1.4-35c-3.8-11.4-10.4-19.5-15.5-24.6  c-2.4,6.5-5.1,16.6-3.5,28.1c2.3,16.3,11.9,26.9,18,32.3c1.8,4.4,3.7,8.7,5.8,12.8c3.1,6,6.5,11.9,10.3,17.5  c-19.5-12.9-37.2-28.6-52.3-46.7c-1.4-8.2-4.7-18.8-12.5-28.7c-7.4-9.4-16.3-14.9-22.8-18c-0.1,6.9,0.7,17.4,6.1,27.7  c7.3,14.1,19.4,20.9,27.1,24.1c13.1,15.4,28,29,44.4,40.7c-4.5-1.5-9.1-2.8-13.7-4c-5.2-1.3-10.5-2.3-15.9-3.2  c-6.8-5.1-17.6-11.2-31.7-12.7c-11.9-1.2-22,1.4-28.8,3.9c4.9,4.9,13,11.5,24.2,14.9c16.3,4.8,30.3,0,37.6-3.4  c4.7,0.8,9.4,1.7,14,2.9c7.5,1.9,15,4.2,22.3,7c14.4,9.4,29.7,17.3,45.7,23.5l-29.4-2.9c-6.7-5.2-18-12.2-33.1-13.8  c-11.9-1.2-22,1.4-28.8,3.9c4.9,4.9,13,11.5,24.2,14.9c15.2,4.5,28.4,0.6,36.1-2.7l40.3,3.9c7.6,2.6,15.4,4.9,23.2,6.7  c1.3,0.3,2.5-0.4,2.9-1.7c0-0.1,0-0.1,0-0.2c0.3-1.3-0.5-2.6-1.8-2.9c-8.9-2.1-17.7-4.7-26.3-7.8c-4.2-4-8-8.4-11.2-13.2  c-2.1-3.1-3.9-6.3-5.6-9.6c1.9-8.3,3.5-21.3-1.3-35.5c-3.8-11.4-10.4-19.5-15.5-24.6c-2.4,6.5-5.1,16.6-3.5,28.1  c2.2,15.7,11.3,26.1,17.4,31.7c1.9,3.9,4,7.7,6.4,11.3c2.3,3.4,5,6.7,7.8,9.8c-14-5.4-27.4-12.1-40.1-20  C1859.7,1842.9,1855.1,1835.5,1851.2,1827.9z"></path>
<path class="st2" d="M194.7,2433.6c2.2,1.4,4.3,3.2,6.1,5.1c-2.6-5.7-4.8-11.9-6.4-18.6c-1.8-7.6-4.4-25.1,1.5-45.7  c-4.1-2.4-11.5-8.2-14.9-14.2c-3.6-6.4-1.8-11.6,1.9-12.9c3.7-1.3,9.6,1.2,12.9,7.7c1.7,3.5,2.5,7.7,2.8,11.5  c1.2-3.1,2.6-6.3,4.3-9.5c4.1-7.9,8.9-14.5,13.5-20c-2.6-3.4-6.6-11.4-6.7-18.1c-0.1-7.1,4.1-11.2,8.2-11.2c4.1,0,8.2,4.2,8,11.3  c-0.1,3.5-1.4,7.4-2.9,10.8c2.2-2.2,4.2-4.2,6.1-6c8.8-8.6,16.2-13.8,23.2-18.4c-1.9-3.7-4.3-12.1-3.1-18.8c1.3-7,6.3-10.5,10.3-10  c4,0.6,7.3,5.3,5.7,12.2c-1,4.4-3.9,9.1-6.7,12.7c3.2-2.1,6.4-4.1,9.6-6.5c2.6-1.9,9.4-7,17.2-14.9c-2.8-3.2-7.5-11.2-8-18  c-0.6-7.1,3.4-11.4,7.5-11.5c4.1-0.1,8.5,3.9,8.7,11c0.1,4.5-1.5,9.6-3.3,13.6c7.2-7.8,14.7-17.7,20.4-29.2  c-3.8-2.4-11.3-8.7-14.4-15c-3.2-6.6-1.1-11.7,2.7-12.8c3.8-1.2,9.5,1.6,12.4,8.2c1.8,4.2,2.2,9.5,2,13.7c2-4.6,3.6-9.5,4.8-14.6  c1.3-5.3,2.1-10.6,2.4-15.9c-4.3-1.3-14-5.8-19.3-11.4c-5.3-5.6-4.9-11-1.7-13c3.3-2,9.7-0.6,14.7,5.1c3.2,3.7,5.3,8.6,6.5,12.7  c0.1-9.1-1.1-18.1-3.5-27c-4.8-0.3-15.3-2.4-22-6.3c-7.1-4.1-8.6-9.4-6.2-12c2.4-2.6,9.1-2.9,15.9,1.5c4.1,2.6,7.7,6.5,10.2,10  c-2.6-7.4-6-14.6-10.3-21.6c-4.4-2.5-11-7.4-14.4-12.6c-4.1-6.2-2.7-11.5,0.9-13c3.6-1.5,9.7,0.7,13.5,7c3.4,5.8,4.3,14,3.9,18.2  c3.9,6.5,7.1,13.3,9.6,20.2c-0.2-3.6,0.1-7.7,1.3-11.2c2.4-6.8,8-9.7,11.9-8.7c3.9,1,6.3,6,3.5,12.7c-2.9,6.8-10.5,13.8-14,16  c2.1,8,3.2,16.3,3.4,24.5c1.1-3.3,2.8-6.9,5-9.7c4.7-5.9,11.1-7.4,14.5-5.6c3.3,1.9,3.9,7.3-1.1,13c-5,5.6-14.3,10.4-18.6,11.9  c-0.4,5.2-1.2,10.5-2.5,15.7c-1,4.3-2.3,8.4-3.9,12.3c2.2-2.9,4.8-5.8,7.8-7.9c6.5-4.6,13.2-4.7,15.8-2.1c2.6,2.5,1.3,7.9-5.5,12.3  c-6.9,4.5-18.1,7-22.4,7.3c-5.3,10.3-11.9,19.3-18.4,26.7c3.1-2.2,6.8-4.2,10.4-5.5c8-2.8,14.3-1.1,15.8,2c1.5,3.1-1.7,7.8-9.8,10.3  c-8.2,2.5-19.6,2.1-24,1.3c-7.7,7.7-14.4,12.7-17,14.6c-2,1.5-4.1,2.9-6.1,4.2c3.4-1.4,7.1-2.6,10.7-3.2c8.5-1.3,14.3,1.4,14.9,4.6  c0.7,3.3-3.7,7.4-12.3,8.4c-8.8,1-20.1-1.4-24-2.9c-6.6,4.4-13.5,9.4-21.8,17.4c-2.5,2.4-5.5,5.3-8.7,8.8c3.9-2.8,9.1-5.9,14.3-7.4  c8.1-2.4,14.4-0.5,15.6,2.6c1.3,3.1-2.2,7.7-10.5,9.8c-8.4,2.1-19.9,1.2-24.1,0.2c-4.3,5.1-8.6,11.2-12.3,18.3  c-2,3.9-3.7,7.8-5,11.6c2.1-3.8,5.3-8.2,9.2-11.2c6.2-4.9,12.9-5.2,15.6-2.8c2.7,2.4,1.8,7.8-4.7,12.5c-6.8,4.9-18.1,7.9-22.2,8.2  c-5.3,19.4-2.8,35.8-1.1,43.1c2.3,9.9,6,18.7,10.5,26.3c-0.7-4.4-0.8-10.4,0.9-15.2c2.4-6.8,8-9.7,11.9-8.7c3.9,1,6.3,6,3.5,12.7  c-2.7,6.5-9.9,13.2-13.5,15.7c6.5,9.8,14,17.5,20.5,23.1c0.7,0.6,0.7,1.6-0.1,2.1c-0.4,0.3-0.8,0.4-1.3,0.4c-0.5,0-1-0.2-1.3-0.5  c-7-6-15-14.3-21.9-25.1c-4.7-0.3-15.4-2.3-22.2-6.3c-7.1-4.1-8.6-9.4-6.2-12C181.3,2429.5,187.9,2429.3,194.7,2433.6z"></path>
<g class="st0">
	<g>
		<g>
			<g>
				<path class="st1" d="M604.7,2516.4c-0.2,0.1-0.4,0.1-0.6,0.1c-1.4,0-2.5-1.2-2.5-2.7c-0.1-50.6-9.3-126.8-53-203      c-22.3-38.9-51-73.2-85.2-101.8c-1.1-0.9-1.3-2.6-0.4-3.7c0.9-1.2,2.4-1.3,3.5-0.4c34.7,29.1,63.7,63.8,86.4,103.2      c44.3,77.2,53.6,154.5,53.7,205.7C606.6,2515.1,605.8,2516.1,604.7,2516.4z"></path>
			</g>
		</g>
		<g>
			<g>
				<path class="st1" d="M459.2,2189.7c16.7,11,31.5,34.3,33.4,41.1c-6.5,1.5-33.1-0.9-50.2-11.1c-15.5-9.1-20.1-22.6-15.9-30.2      C430.8,2182.1,444.2,2179.9,459.2,2189.7z"></path>
			</g>
		</g>
		<g>
			<g>
				<path class="st1" d="M503.9,2270.2c17.9,5.5,37.1,22.8,40.5,28.5c-5.6,3.1-30.4,8.1-48.6,3.5c-16.3-4.2-23.8-15.2-21.8-23.3      C476,2270.8,487.7,2265.2,503.9,2270.2z"></path>
			</g>
		</g>
		<g>
			<g>
				<path class="st1" d="M539.1,2228.4c3,19.4-3.5,45.2-6.8,50.9c-5.1-4-20.1-25.5-23.9-44.8c-3.5-17.4,2.7-29.3,10.4-30.8      C526.5,2202.1,536.4,2210.9,539.1,2228.4z"></path>
			</g>
		</g>
		<g>
			<g>
				<path class="st1" d="M555.7,2335.5c14.3,12.6,25.3,36.7,26.3,43.3c-6.3,0.5-31-5.5-45.8-17.4c-13.4-10.8-16-24.1-11.1-30.6      C530,2324.3,542.8,2324.1,555.7,2335.5z"></path>
			</g>
		</g>
		<g>
			<g>
				<path class="st1" d="M593.3,2305.1c-2.7,19.5-16.3,42-21.1,46.3c-3.7-5.4-11.8-30.7-10-50.3c1.7-17.7,11-27.1,18.8-26      C588.8,2276,595.7,2287.5,593.3,2305.1z"></path>
			</g>
		</g>
		<g>
			<g>
				<path class="st1" d="M578.1,2420.6c13.7,13.4,23.5,38,24.1,44.7c-6.4,0.1-30.6-7.2-44.9-19.9c-12.8-11.5-14.9-24.9-9.6-31.1      C552.9,2408.1,565.8,2408.5,578.1,2420.6z"></path>
			</g>
		</g>
		<g>
			<g>
				<path class="st1" d="M627.2,2401.8c-6.6,18.4-24.4,37.3-30,40.5c-2.5-6.2-5.3-32.7,0.4-51.4c5.2-16.9,16.2-23.9,23.6-21.2      C628.7,2372.4,633.1,2385.2,627.2,2401.8z"></path>
			</g>
		</g>
	</g>
</g>
<path class="st2" d="M61.5,2312.3c6.5-4.3,18.7-0.5,27.5,13.5c4.9,7.8,8.2,18,10.2,27c2.4-22.5,5.6-45.1,10.2-67.4  c-8.3-5.4-22.8-17.8-29.9-31c-7.9-14.6-5.2-27.1,1.7-30.6c6.9-3.5,18.6,1.5,25.9,16.5c3.6,7.5,5.7,16.6,6.8,25  c4.4-17.8,9.8-35.3,16.4-52.4c-6.4-6.2-19.1-23.4-23-39.3c-4-16.1,1.7-27.5,9.3-29.2c7.6-1.7,17.7,6.1,20.9,22.4  c1.8,9.1,1.3,19.8,0,28.8c1.7-3.9,3.5-7.7,5.4-11.5c6-12.1,12.7-23.9,19.9-35.4c-4.7-7.8-12.3-27.4-12.1-43.6  c0.2-16.6,8.7-26.2,16.5-25.9c7.8,0.3,15.5,10.4,14.5,27c-0.4,6.9-2.3,14.3-4.7,21.1c9.4-13.5,19.2-26.7,29-39.6  c1.6-9.2,6.7-25.1,14.8-35.6c9.3-12.1,20.8-14.4,26.4-9.9c5.6,4.5,5.6,16.2-4.3,27.8c-9.6,11.3-26.7,20.3-34.7,22.9  c-11.5,15.2-23,30.7-33.7,46.7c8-5.7,18.5-11.6,28.5-14.1c16.1-4,27.5,1.7,29.2,9.3s-6.1,17.7-22.4,20.9c-15,3-34.4-0.3-43.6-3.4  c-6.9,11-13.3,22.2-19,33.9c-1.9,3.8-3.6,7.6-5.3,11.4c5.9-6.6,13.4-13.4,21.2-17.7c14.6-8,27-5.3,30.6,1.6  c3.6,6.9-1.4,18.6-16.4,25.9c-13.7,6.7-33.1,8.4-42.8,7.9c-7.2,18.7-12.9,38-17.4,57.6c4.2-8.8,10.5-19.2,18.1-26.2  c12.1-11.4,24.9-11.9,30.1-6.1c5.2,5.8,3.3,18.4-9.4,29.2c-12.7,10.9-33.6,17.6-42.1,18.7c-4.3,21.4-7.4,43.1-9.6,64.6  c3.2-8.3,7.8-17.3,13.5-24c10.8-12.6,23.4-14.6,29.2-9.4c5.8,5.2,5.3,17.9-6.1,30.1c-10.9,11.6-29.6,20.4-38.5,22.9  c-2.3,26.1-3.6,51.9-5,76.7c-0.1,1.3-1.2,2.4-2.6,2.3c0,0,0,0,0,0c-1.3-0.1-2.4-1.2-2.3-2.6c1.3-25.3,2.7-51.5,5.1-78.2  c-8.6-4-25.4-15.2-34.3-28.1C53.7,2329.2,55,2316.5,61.5,2312.3z"></path>
</svg>